<svg width="1434" height="809" viewBox="0 0 1434 809" fill="none" xmlns="http://www.w3.org/2000/svg">
<rect x="-8.5" y="0.5" width="54" height="54" fill="white" stroke="#F4F4F4"/>
<rect x="46.5" y="0.5" width="54" height="54" fill="white" stroke="#F4F4F4"/>
<rect x="101.5" y="0.5" width="54" height="54" fill="white" stroke="#F4F4F4"/>
<rect x="156.5" y="0.5" width="54" height="54" fill="white" stroke="#F4F4F4"/>
<rect x="211.5" y="0.5" width="54" height="54" fill="white" stroke="#F4F4F4"/>
<rect x="266.5" y="0.5" width="54" height="54" fill="white" stroke="#F4F4F4"/>
<rect x="321.5" y="0.5" width="54" height="54" fill="white" stroke="#F4F4F4"/>
<rect x="376.5" y="0.5" width="54" height="54" fill="white" stroke="#F4F4F4"/>
<rect x="431.5" y="0.5" width="54" height="54" fill="white" stroke="#F4F4F4"/>
<rect x="486.5" y="0.5" width="54" height="54" fill="white" stroke="#F4F4F4"/>
<rect x="541.5" y="0.5" width="54" height="54" fill="white" stroke="#F4F4F4"/>
<rect x="596.5" y="0.5" width="54" height="54" fill="white" stroke="#F4F4F4"/>
<rect x="651.5" y="0.5" width="54" height="54" fill="white" stroke="#F4F4F4"/>
<rect x="706.5" y="0.5" width="54" height="54" fill="white" stroke="#F4F4F4"/>
<rect x="761.5" y="0.5" width="54" height="54" fill="white" stroke="#F4F4F4"/>
<rect x="816.5" y="0.5" width="54" height="54" fill="white" stroke="#F4F4F4"/>
<rect x="871.5" y="0.5" width="54" height="54" fill="white" stroke="#F4F4F4"/>
<rect x="926.5" y="0.5" width="54" height="54" fill="white" stroke="#F4F4F4"/>
<rect x="981.5" y="0.5" width="54" height="54" fill="white" stroke="#F4F4F4"/>
<rect x="-8.5" y="55.5" width="54" height="54" stroke="#F4F4F4"/>
<rect x="46.5" y="55.5" width="54" height="54" stroke="#F4F4F4"/>
<rect x="101.5" y="55.5" width="54" height="54" stroke="#F4F4F4"/>
<rect x="156.5" y="55.5" width="54" height="54" stroke="#F4F4F4"/>
<rect x="211.5" y="55.5" width="54" height="54" stroke="#F4F4F4"/>
<rect x="266.5" y="55.5" width="54" height="54" stroke="#F4F4F4"/>
<rect x="321.5" y="55.5" width="54" height="54" stroke="#F4F4F4"/>
<rect x="376.5" y="55.5" width="54" height="54" stroke="#F4F4F4"/>
<rect x="431.5" y="55.5" width="54" height="54" stroke="#F4F4F4"/>
<rect x="486.5" y="55.5" width="54" height="54" stroke="#F4F4F4"/>
<rect x="541.5" y="55.5" width="54" height="54" stroke="#F4F4F4"/>
<rect x="596.5" y="55.5" width="54" height="54" stroke="#F4F4F4"/>
<rect x="651.5" y="55.5" width="54" height="54" stroke="#F4F4F4"/>
<rect x="706.5" y="55.5" width="54" height="54" stroke="#F4F4F4"/>
<rect x="761.5" y="55.5" width="54" height="54" stroke="#F4F4F4"/>
<rect x="816.5" y="55.5" width="54" height="54" stroke="#F4F4F4"/>
<rect x="871.5" y="55.5" width="54" height="54" stroke="#F4F4F4"/>
<rect x="926.5" y="55.5" width="54" height="54" stroke="#F4F4F4"/>
<rect x="981.5" y="55.5" width="54" height="54" stroke="#F4F4F4"/>
<rect x="-8.5" y="110.5" width="54" height="54" stroke="#F4F4F4"/>
<rect x="46.5" y="110.5" width="54" height="54" stroke="#F4F4F4"/>
<rect x="101.5" y="110.5" width="54" height="54" stroke="#F4F4F4"/>
<rect x="156.5" y="110.5" width="54" height="54" stroke="#F4F4F4"/>
<rect x="211.5" y="110.5" width="54" height="54" stroke="#F4F4F4"/>
<rect x="266.5" y="110.5" width="54" height="54" stroke="#F4F4F4"/>
<rect x="321.5" y="110.5" width="54" height="54" stroke="#F4F4F4"/>
<rect x="376.5" y="110.5" width="54" height="54" stroke="#F4F4F4"/>
<rect x="431.5" y="110.5" width="54" height="54" stroke="#F4F4F4"/>
<rect x="486.5" y="110.5" width="54" height="54" stroke="#F4F4F4"/>
<rect x="541.5" y="110.5" width="54" height="54" stroke="#F4F4F4"/>
<rect x="596.5" y="110.5" width="54" height="54" stroke="#F4F4F4"/>
<rect x="651.5" y="110.5" width="54" height="54" stroke="#F4F4F4"/>
<rect x="706.5" y="110.5" width="54" height="54" stroke="#F4F4F4"/>
<rect x="761.5" y="110.5" width="54" height="54" stroke="#F4F4F4"/>
<rect x="816.5" y="110.5" width="54" height="54" stroke="#F4F4F4"/>
<rect x="871.5" y="110.5" width="54" height="54" stroke="#F4F4F4"/>
<rect x="926.5" y="110.5" width="54" height="54" stroke="#F4F4F4"/>
<rect x="981.5" y="110.5" width="54" height="54" stroke="#F4F4F4"/>
<rect x="-8.5" y="165.5" width="54" height="54" stroke="#F4F4F4"/>
<rect x="46.5" y="165.5" width="54" height="54" stroke="#F4F4F4"/>
<rect x="101.5" y="165.5" width="54" height="54" stroke="#F4F4F4"/>
<rect x="156.5" y="165.5" width="54" height="54" stroke="#F4F4F4"/>
<rect x="211.5" y="165.5" width="54" height="54" stroke="#F4F4F4"/>
<rect x="266.5" y="165.5" width="54" height="54" stroke="#F4F4F4"/>
<rect x="321.5" y="165.5" width="54" height="54" stroke="#F4F4F4"/>
<rect x="376.5" y="165.5" width="54" height="54" stroke="#F4F4F4"/>
<rect x="431.5" y="165.5" width="54" height="54" stroke="#F4F4F4"/>
<rect x="486.5" y="165.5" width="54" height="54" stroke="#F4F4F4"/>
<rect x="541.5" y="165.5" width="54" height="54" stroke="#F4F4F4"/>
<rect x="596.5" y="165.5" width="54" height="54" stroke="#F4F4F4"/>
<rect x="651.5" y="165.5" width="54" height="54" stroke="#F4F4F4"/>
<rect x="706.5" y="165.5" width="54" height="54" stroke="#F4F4F4"/>
<rect x="761.5" y="165.5" width="54" height="54" stroke="#F4F4F4"/>
<rect x="816.5" y="165.5" width="54" height="54" stroke="#F4F4F4"/>
<rect x="871.5" y="165.5" width="54" height="54" stroke="#F4F4F4"/>
<rect x="926.5" y="165.5" width="54" height="54" stroke="#F4F4F4"/>
<rect x="981.5" y="165.5" width="54" height="54" stroke="#F4F4F4"/>
<rect x="-8.5" y="220.5" width="54" height="54" stroke="#F4F4F4"/>
<rect x="46.5" y="220.5" width="54" height="54" stroke="#F4F4F4"/>
<rect x="101.5" y="220.5" width="54" height="54" stroke="#F4F4F4"/>
<rect x="156.5" y="220.5" width="54" height="54" stroke="#F4F4F4"/>
<rect x="211.5" y="220.5" width="54" height="54" stroke="#F4F4F4"/>
<rect x="266.5" y="220.5" width="54" height="54" stroke="#F4F4F4"/>
<rect x="321.5" y="220.5" width="54" height="54" stroke="#F4F4F4"/>
<rect x="376.5" y="220.5" width="54" height="54" stroke="#F4F4F4"/>
<rect x="431.5" y="220.5" width="54" height="54" stroke="#F4F4F4"/>
<rect x="486.5" y="220.5" width="54" height="54" stroke="#F4F4F4"/>
<rect x="541.5" y="220.5" width="54" height="54" stroke="#F4F4F4"/>
<rect x="596.5" y="220.5" width="54" height="54" stroke="#F4F4F4"/>
<rect x="651.5" y="220.5" width="54" height="54" stroke="#F4F4F4"/>
<rect x="706.5" y="220.5" width="54" height="54" stroke="#F4F4F4"/>
<rect x="761.5" y="220.5" width="54" height="54" stroke="#F4F4F4"/>
<rect x="816.5" y="220.5" width="54" height="54" stroke="#F4F4F4"/>
<rect x="871.5" y="220.5" width="54" height="54" stroke="#F4F4F4"/>
<rect x="926.5" y="220.5" width="54" height="54" stroke="#F4F4F4"/>
<rect x="981.5" y="220.5" width="54" height="54" stroke="#F4F4F4"/>
<rect x="-8.5" y="275.5" width="54" height="54" stroke="#F4F4F4"/>
<rect x="46.5" y="275.5" width="54" height="54" stroke="#F4F4F4"/>
<rect x="101.5" y="275.5" width="54" height="54" stroke="#F4F4F4"/>
<rect x="156.5" y="275.5" width="54" height="54" stroke="#F4F4F4"/>
<rect x="211.5" y="275.5" width="54" height="54" stroke="#F4F4F4"/>
<rect x="266.5" y="275.5" width="54" height="54" stroke="#F4F4F4"/>
<rect x="321.5" y="275.5" width="54" height="54" stroke="#F4F4F4"/>
<rect x="376.5" y="275.5" width="54" height="54" stroke="#F4F4F4"/>
<rect x="431.5" y="275.5" width="54" height="54" stroke="#F4F4F4"/>
<rect x="486.5" y="275.5" width="54" height="54" stroke="#F4F4F4"/>
<rect x="541.5" y="275.5" width="54" height="54" stroke="#F4F4F4"/>
<rect x="596.5" y="275.5" width="54" height="54" stroke="#F4F4F4"/>
<rect x="651.5" y="275.5" width="54" height="54" stroke="#F4F4F4"/>
<rect x="706.5" y="275.5" width="54" height="54" stroke="#F4F4F4"/>
<rect x="761.5" y="275.5" width="54" height="54" stroke="#F4F4F4"/>
<rect x="816.5" y="275.5" width="54" height="54" stroke="#F4F4F4"/>
<rect x="871.5" y="275.5" width="54" height="54" stroke="#F4F4F4"/>
<rect x="926.5" y="275.5" width="54" height="54" stroke="#F4F4F4"/>
<rect x="981.5" y="275.5" width="54" height="54" stroke="#F4F4F4"/>
<rect x="-8.5" y="330.5" width="54" height="54" stroke="#F4F4F4"/>
<rect x="46.5" y="330.5" width="54" height="54" stroke="#F4F4F4"/>
<rect x="101.5" y="330.5" width="54" height="54" stroke="#F4F4F4"/>
<rect x="156.5" y="330.5" width="54" height="54" stroke="#F4F4F4"/>
<rect x="211.5" y="330.5" width="54" height="54" stroke="#F4F4F4"/>
<rect x="266.5" y="330.5" width="54" height="54" stroke="#F4F4F4"/>
<rect x="321.5" y="330.5" width="54" height="54" stroke="#F4F4F4"/>
<rect x="376.5" y="330.5" width="54" height="54" stroke="#F4F4F4"/>
<rect x="431.5" y="330.5" width="54" height="54" stroke="#F4F4F4"/>
<rect x="486.5" y="330.5" width="54" height="54" stroke="#F4F4F4"/>
<rect x="541.5" y="330.5" width="54" height="54" stroke="#F4F4F4"/>
<rect x="596.5" y="330.5" width="54" height="54" stroke="#F4F4F4"/>
<rect x="651.5" y="330.5" width="54" height="54" stroke="#F4F4F4"/>
<rect x="706.5" y="330.5" width="54" height="54" stroke="#F4F4F4"/>
<rect x="761.5" y="330.5" width="54" height="54" stroke="#F4F4F4"/>
<rect x="816.5" y="330.5" width="54" height="54" stroke="#F4F4F4"/>
<rect x="871.5" y="330.5" width="54" height="54" stroke="#F4F4F4"/>
<rect x="926.5" y="330.5" width="54" height="54" stroke="#F4F4F4"/>
<rect x="981.5" y="330.5" width="54" height="54" stroke="#F4F4F4"/>
<rect x="-8.5" y="385.5" width="54" height="54" stroke="#F4F4F4"/>
<rect x="46.5" y="385.5" width="54" height="54" stroke="#F4F4F4"/>
<rect x="101.5" y="385.5" width="54" height="54" stroke="#F4F4F4"/>
<rect x="156.5" y="385.5" width="54" height="54" stroke="#F4F4F4"/>
<rect x="211.5" y="385.5" width="54" height="54" stroke="#F4F4F4"/>
<rect x="266.5" y="385.5" width="54" height="54" stroke="#F4F4F4"/>
<rect x="321.5" y="385.5" width="54" height="54" stroke="#F4F4F4"/>
<rect x="376.5" y="385.5" width="54" height="54" stroke="#F4F4F4"/>
<rect x="431.5" y="385.5" width="54" height="54" stroke="#F4F4F4"/>
<rect x="486.5" y="385.5" width="54" height="54" stroke="#F4F4F4"/>
<rect x="541.5" y="385.5" width="54" height="54" stroke="#F4F4F4"/>
<rect x="596.5" y="385.5" width="54" height="54" stroke="#F4F4F4"/>
<rect x="651.5" y="385.5" width="54" height="54" stroke="#F4F4F4"/>
<rect x="706.5" y="385.5" width="54" height="54" stroke="#F4F4F4"/>
<rect x="761.5" y="385.5" width="54" height="54" stroke="#F4F4F4"/>
<rect x="816.5" y="385.5" width="54" height="54" stroke="#F4F4F4"/>
<rect x="871.5" y="385.5" width="54" height="54" stroke="#F4F4F4"/>
<rect x="926.5" y="385.5" width="54" height="54" stroke="#F4F4F4"/>
<rect x="981.5" y="385.5" width="54" height="54" stroke="#F4F4F4"/>
<rect x="-8.5" y="440.5" width="54" height="54" stroke="#F4F4F4"/>
<rect x="46.5" y="440.5" width="54" height="54" stroke="#F4F4F4"/>
<rect x="101.5" y="440.5" width="54" height="54" stroke="#F4F4F4"/>
<rect x="156.5" y="440.5" width="54" height="54" stroke="#F4F4F4"/>
<rect x="211.5" y="440.5" width="54" height="54" stroke="#F4F4F4"/>
<rect x="266.5" y="440.5" width="54" height="54" stroke="#F4F4F4"/>
<rect x="321.5" y="440.5" width="54" height="54" stroke="#F4F4F4"/>
<rect x="376.5" y="440.5" width="54" height="54" stroke="#F4F4F4"/>
<rect x="431.5" y="440.5" width="54" height="54" stroke="#F4F4F4"/>
<rect x="486.5" y="440.5" width="54" height="54" stroke="#F4F4F4"/>
<rect x="541.5" y="440.5" width="54" height="54" stroke="#F4F4F4"/>
<rect x="596.5" y="440.5" width="54" height="54" stroke="#F4F4F4"/>
<rect x="651.5" y="440.5" width="54" height="54" stroke="#F4F4F4"/>
<rect x="706.5" y="440.5" width="54" height="54" stroke="#F4F4F4"/>
<rect x="761.5" y="440.5" width="54" height="54" stroke="#F4F4F4"/>
<rect x="816.5" y="440.5" width="54" height="54" stroke="#F4F4F4"/>
<rect x="871.5" y="440.5" width="54" height="54" stroke="#F4F4F4"/>
<rect x="926.5" y="440.5" width="54" height="54" stroke="#F4F4F4"/>
<rect x="981.5" y="440.5" width="54" height="54" stroke="#F4F4F4"/>
<rect x="-8.5" y="495.5" width="54" height="54" stroke="#F4F4F4"/>
<rect x="46.5" y="495.5" width="54" height="54" stroke="#F4F4F4"/>
<rect x="101.5" y="495.5" width="54" height="54" stroke="#F4F4F4"/>
<rect x="156.5" y="495.5" width="54" height="54" stroke="#F4F4F4"/>
<rect x="211.5" y="495.5" width="54" height="54" stroke="#F4F4F4"/>
<rect x="266.5" y="495.5" width="54" height="54" stroke="#F4F4F4"/>
<rect x="321.5" y="495.5" width="54" height="54" stroke="#F4F4F4"/>
<rect x="376.5" y="495.5" width="54" height="54" stroke="#F4F4F4"/>
<rect x="431.5" y="495.5" width="54" height="54" stroke="#F4F4F4"/>
<rect x="486.5" y="495.5" width="54" height="54" stroke="#F4F4F4"/>
<rect x="541.5" y="495.5" width="54" height="54" stroke="#F4F4F4"/>
<rect x="596.5" y="495.5" width="54" height="54" stroke="#F4F4F4"/>
<rect x="651.5" y="495.5" width="54" height="54" stroke="#F4F4F4"/>
<rect x="706.5" y="495.5" width="54" height="54" stroke="#F4F4F4"/>
<rect x="761.5" y="495.5" width="54" height="54" stroke="#F4F4F4"/>
<rect x="816.5" y="495.5" width="54" height="54" stroke="#F4F4F4"/>
<rect x="871.5" y="495.5" width="54" height="54" stroke="#F4F4F4"/>
<rect x="926.5" y="495.5" width="54" height="54" stroke="#F4F4F4"/>
<rect x="981.5" y="495.5" width="54" height="54" stroke="#F4F4F4"/>
<rect x="-8.5" y="550.5" width="54" height="54" stroke="#F4F4F4"/>
<rect x="46.5" y="550.5" width="54" height="54" stroke="#F4F4F4"/>
<rect x="101.5" y="550.5" width="54" height="54" stroke="#F4F4F4"/>
<rect x="156.5" y="550.5" width="54" height="54" stroke="#F4F4F4"/>
<rect x="211.5" y="550.5" width="54" height="54" stroke="#F4F4F4"/>
<rect x="266.5" y="550.5" width="54" height="54" stroke="#F4F4F4"/>
<rect x="321.5" y="550.5" width="54" height="54" stroke="#F4F4F4"/>
<rect x="376.5" y="550.5" width="54" height="54" stroke="#F4F4F4"/>
<rect x="431.5" y="550.5" width="54" height="54" stroke="#F4F4F4"/>
<rect x="486.5" y="550.5" width="54" height="54" stroke="#F4F4F4"/>
<rect x="541.5" y="550.5" width="54" height="54" stroke="#F4F4F4"/>
<rect x="596.5" y="550.5" width="54" height="54" stroke="#F4F4F4"/>
<rect x="651.5" y="550.5" width="54" height="54" stroke="#F4F4F4"/>
<rect x="706.5" y="550.5" width="54" height="54" stroke="#F4F4F4"/>
<rect x="761.5" y="550.5" width="54" height="54" stroke="#F4F4F4"/>
<rect x="816.5" y="550.5" width="54" height="54" stroke="#F4F4F4"/>
<rect x="871.5" y="550.5" width="54" height="54" stroke="#F4F4F4"/>
<rect x="926.5" y="550.5" width="54" height="54" stroke="#F4F4F4"/>
<rect x="981.5" y="550.5" width="54" height="54" stroke="#F4F4F4"/>
<rect x="-8.5" y="605.5" width="54" height="54" stroke="#F4F4F4"/>
<rect x="46.5" y="605.5" width="54" height="54" stroke="#F4F4F4"/>
<rect x="101.5" y="605.5" width="54" height="54" stroke="#F4F4F4"/>
<rect x="156.5" y="605.5" width="54" height="54" stroke="#F4F4F4"/>
<rect x="211.5" y="605.5" width="54" height="54" stroke="#F4F4F4"/>
<rect x="266.5" y="605.5" width="54" height="54" stroke="#F4F4F4"/>
<rect x="321.5" y="605.5" width="54" height="54" stroke="#F4F4F4"/>
<rect x="376.5" y="605.5" width="54" height="54" stroke="#F4F4F4"/>
<rect x="431.5" y="605.5" width="54" height="54" stroke="#F4F4F4"/>
<rect x="486.5" y="605.5" width="54" height="54" stroke="#F4F4F4"/>
<rect x="541.5" y="605.5" width="54" height="54" stroke="#F4F4F4"/>
<rect x="596.5" y="605.5" width="54" height="54" stroke="#F4F4F4"/>
<rect x="651.5" y="605.5" width="54" height="54" stroke="#F4F4F4"/>
<rect x="706.5" y="605.5" width="54" height="54" stroke="#F4F4F4"/>
<rect x="761.5" y="605.5" width="54" height="54" stroke="#F4F4F4"/>
<rect x="816.5" y="605.5" width="54" height="54" stroke="#F4F4F4"/>
<rect x="871.5" y="605.5" width="54" height="54" stroke="#F4F4F4"/>
<rect x="926.5" y="605.5" width="54" height="54" stroke="#F4F4F4"/>
<rect x="981.5" y="605.5" width="54" height="54" stroke="#F4F4F4"/>
<rect x="-8.5" y="660.5" width="54" height="54" stroke="#F4F4F4"/>
<rect x="46.5" y="660.5" width="54" height="54" stroke="#F4F4F4"/>
<rect x="101.5" y="660.5" width="54" height="54" stroke="#F4F4F4"/>
<rect x="156.5" y="660.5" width="54" height="54" stroke="#F4F4F4"/>
<rect x="211.5" y="660.5" width="54" height="54" stroke="#F4F4F4"/>
<rect x="266.5" y="660.5" width="54" height="54" stroke="#F4F4F4"/>
<rect x="321.5" y="660.5" width="54" height="54" stroke="#F4F4F4"/>
<rect x="376.5" y="660.5" width="54" height="54" stroke="#F4F4F4"/>
<rect x="431.5" y="660.5" width="54" height="54" stroke="#F4F4F4"/>
<rect x="486.5" y="660.5" width="54" height="54" stroke="#F4F4F4"/>
<rect x="541.5" y="660.5" width="54" height="54" stroke="#F4F4F4"/>
<rect x="596.5" y="660.5" width="54" height="54" stroke="#F4F4F4"/>
<rect x="651.5" y="660.5" width="54" height="54" stroke="#F4F4F4"/>
<rect x="706.5" y="660.5" width="54" height="54" stroke="#F4F4F4"/>
<rect x="761.5" y="660.5" width="54" height="54" stroke="#F4F4F4"/>
<rect x="816.5" y="660.5" width="54" height="54" stroke="#F4F4F4"/>
<rect x="871.5" y="660.5" width="54" height="54" stroke="#F4F4F4"/>
<rect x="926.5" y="660.5" width="54" height="54" stroke="#F4F4F4"/>
<rect x="981.5" y="660.5" width="54" height="54" stroke="#F4F4F4"/>
<rect x="-8.5" y="715.5" width="54" height="54" stroke="#F4F4F4"/>
<rect x="46.5" y="715.5" width="54" height="54" stroke="#F4F4F4"/>
<rect x="101.5" y="715.5" width="54" height="54" stroke="#F4F4F4"/>
<rect x="156.5" y="715.5" width="54" height="54" stroke="#F4F4F4"/>
<rect x="211.5" y="715.5" width="54" height="54" stroke="#F4F4F4"/>
<rect x="266.5" y="715.5" width="54" height="54" stroke="#F4F4F4"/>
<rect x="321.5" y="715.5" width="54" height="54" stroke="#F4F4F4"/>
<rect x="376.5" y="715.5" width="54" height="54" stroke="#F4F4F4"/>
<rect x="431.5" y="715.5" width="54" height="54" stroke="#F4F4F4"/>
<rect x="486.5" y="715.5" width="54" height="54" stroke="#F4F4F4"/>
<rect x="541.5" y="715.5" width="54" height="54" stroke="#F4F4F4"/>
<rect x="596.5" y="715.5" width="54" height="54" stroke="#F4F4F4"/>
<rect x="651.5" y="715.5" width="54" height="54" stroke="#F4F4F4"/>
<rect x="706.5" y="715.5" width="54" height="54" stroke="#F4F4F4"/>
<rect x="761.5" y="715.5" width="54" height="54" stroke="#F4F4F4"/>
<rect x="816.5" y="715.5" width="54" height="54" stroke="#F4F4F4"/>
<rect x="871.5" y="715.5" width="54" height="54" stroke="#F4F4F4"/>
<rect x="926.5" y="715.5" width="54" height="54" stroke="#F4F4F4"/>
<rect x="981.5" y="715.5" width="54" height="54" stroke="#F4F4F4"/>
<rect x="-8.5" y="770.5" width="54" height="54" stroke="#F4F4F4"/>
<rect x="46.5" y="770.5" width="54" height="54" stroke="#F4F4F4"/>
<rect x="101.5" y="770.5" width="54" height="54" stroke="#F4F4F4"/>
<rect x="156.5" y="770.5" width="54" height="54" stroke="#F4F4F4"/>
<rect x="211.5" y="770.5" width="54" height="54" stroke="#F4F4F4"/>
<rect x="266.5" y="770.5" width="54" height="54" stroke="#F4F4F4"/>
<rect x="321.5" y="770.5" width="54" height="54" stroke="#F4F4F4"/>
<rect x="376.5" y="770.5" width="54" height="54" stroke="#F4F4F4"/>
<rect x="431.5" y="770.5" width="54" height="54" stroke="#F4F4F4"/>
<rect x="486.5" y="770.5" width="54" height="54" stroke="#F4F4F4"/>
<rect x="541.5" y="770.5" width="54" height="54" stroke="#F4F4F4"/>
<rect x="596.5" y="770.5" width="54" height="54" stroke="#F4F4F4"/>
<rect x="651.5" y="770.5" width="54" height="54" stroke="#F4F4F4"/>
<rect x="706.5" y="770.5" width="54" height="54" stroke="#F4F4F4"/>
<rect x="761.5" y="770.5" width="54" height="54" stroke="#F4F4F4"/>
<rect x="816.5" y="770.5" width="54" height="54" stroke="#F4F4F4"/>
<rect x="871.5" y="770.5" width="54" height="54" stroke="#F4F4F4"/>
<rect x="926.5" y="770.5" width="54" height="54" stroke="#F4F4F4"/>
<rect x="981.5" y="770.5" width="54" height="54" stroke="#F4F4F4"/>
</svg>
