<svg width="1975" height="2007" viewBox="0 0 1975 2007" fill="none" xmlns="http://www.w3.org/2000/svg">
<g clip-path="url(#clip0_313_1308)">
<path d="M896.454 0L1287.39 232.964L870.39 475.77V17.9228C870.39 11.3403 884.334 2.998 889.938 0H896.454Z" fill="#FE4A46"/>
<path d="M430.585 726.69L428.956 237.853L847.518 480.658L430.585 726.69Z" fill="#FEB548"/>
<path d="M427.294 1769.47V1280.67L847.518 1526.7L427.294 1769.47Z" fill="#1ADA1A"/>
<path d="M1300.45 1769.47L880.131 1526.7L1300.45 1280.67V1769.47Z" fill="#0069E3"/>
<path d="M420.778 759.276L417.488 1248.08L0.456543 1002.08L420.778 759.276Z" fill="#FEE100"/>
<path d="M420.778 733.208L43.137 516.211C28.769 506.207 12.0552 497.897 23.6864 477.726L417.52 244.37L420.778 733.142V733.208Z" fill="#FEB548"/>
<path d="M1300.45 726.69L880.131 480.658L1300.45 237.885V726.69Z" fill="#FE4A46"/>
<path d="M860.615 1534.85C860.615 1685.4 854.946 1835.49 857.553 1986.34C857.781 1996.86 843.674 2008.34 833.736 2006.8C701.166 1933.78 573.451 1850.81 440.392 1779.22L860.648 1534.88L860.615 1534.85Z" fill="#1ADA1A"/>
<path d="M1310.23 733.207V244.402L1706.08 478.996C1713.44 500.96 1702.99 505.685 1687.87 516.21L1310.23 733.207Z" fill="#FE4A46"/>
<path d="M0.48877 1016.71L417.552 1262.71L35.4477 1486.68C27.3351 1494.24 0.48877 1486.46 0.48877 1477.82V1016.71Z" fill="#FEE100"/>
<path d="M841.067 0C855.826 6.2567 854.197 9.7761 857.357 22.8109C860.55 58.6566 862.114 95.3821 860.973 131.423C860.973 132.173 859.377 132.89 857.357 133.607C854.816 134.356 851.036 135.366 849.831 133.737C832.921 111.154 800.862 58.8195 789.101 33.4994L792.196 26.0696C805.977 17.988 818.944 6.22411 834.55 0L841.067 0Z" fill="#FE4C47"/>
<path d="M818.261 449.701C805.456 442.369 792.066 434.287 779.164 426.89L761.864 410.368C708.79 320.2 655.781 230.195 602.871 140.32L606.487 133.607C614.013 129.175 621.8 125.004 629.293 120.572L636.07 119.269C698.006 227.164 759.974 335.092 821.942 443.02L818.261 449.701Z" fill="#FE8248"/>
<path d="M704.229 78.209L710.973 76.71C757.596 153.094 804.283 229.576 851.037 306.22L857.357 329.096V371.459C854.392 380.975 849.31 377.064 843.282 371.459C784.181 281.943 729.446 189.917 679.142 95.3497L684.68 87.9199C691.424 83.9769 699.048 81.1744 704.229 78.1438V78.209Z" fill="#FE6C47"/>
<path d="M779.164 426.889C765.773 419.199 750.623 412.03 736.809 404.078L719.932 387.329C675.362 308.11 630.89 228.989 586.45 149.998L590.196 143.383C595.637 140.189 601.013 136.833 606.487 133.606L779.164 426.889Z" fill="#FE8848"/>
<path d="M642.326 114.055L646.366 112.36C717.033 227.653 786.364 344.38 854.295 462.605L850.841 469.253C838.786 462.736 829.24 455.99 818.261 449.701L629.293 120.572C633.887 117.868 638.742 116.14 642.326 114.055Z" fill="#FE7D48"/>
<path d="M857.357 410.596C861.397 443.867 856.51 452.959 842.663 437.871L649.102 113.989L652.099 107.537C657.508 104.376 662.916 100.955 668.39 97.761L675.134 96.3271C733.225 194.251 792.131 291.882 851.883 389.186L857.324 410.596H857.357Z" fill="#FE7748"/>
<path d="M857.357 22.8105C858.074 25.776 860.29 27.4705 860.843 33.8249C872.898 174.177 851.33 331.931 860.615 474.108C858.661 477.92 852.666 470.23 850.841 469.22L642.326 114.022C645.323 112.262 648.418 109.655 652.1 107.504L849.408 436.437L857.325 439.891C857.488 430.148 857.162 420.307 857.325 410.596C849.44 395.247 849.44 382.212 857.325 371.491C857.423 357.414 857.292 343.206 857.325 329.128C852.796 317.853 850.515 306.904 857.325 296.541C850.939 282.529 850.906 268.191 857.325 254.178C852.731 242.903 850.548 231.986 857.325 221.591C850.906 205.395 850.906 188.906 857.325 172.711C848.43 154.625 848.43 141.59 857.325 133.606V22.8105H857.357Z" fill="#FE7A47"/>
<path d="M736.809 404.079C723.744 396.551 710.744 388.795 697.712 381.268L679.923 363.019C679.923 363.019 642.26 296.346 566.901 163.033L570.648 156.418C576.154 153.191 583.061 147.587 590.196 143.383L736.809 404.079Z" fill="#FE8D48"/>
<path d="M857.357 371.491C857.26 384.493 857.585 397.593 857.357 410.596L668.39 97.7605C673.831 94.5669 679.207 91.2105 684.68 87.9844C684.42 97.0436 690.871 104.278 695.171 111.708C738.829 187.016 794.77 295.629 844.879 362.79C848.463 367.581 850.352 371.491 857.357 371.491Z" fill="#FE7248"/>
<path d="M665.132 361.716C652.067 354.156 639.067 346.465 626.035 338.905L608.148 321.471C581.367 276.24 554.619 231.042 527.935 185.877L531.552 179.229C537.709 175.579 543.932 170.398 551.1 166.194L558.235 165.51C595.084 228.696 631.932 291.882 668.813 355.101L665.132 361.749V361.716Z" fill="#FE9848"/>
<path d="M736.809 58.6563C739.155 57.5483 742.934 56.31 743.944 57.809C777.307 108.123 816.436 168.963 845.042 221.787C851.493 231.498 855.598 242.284 857.357 254.178C857.357 268.256 857.357 282.464 857.357 296.541L850.222 297.389C804.74 223.351 759.257 149.281 713.742 75.1779L717.261 68.4324C724.005 64.4893 731.661 61.6869 736.809 58.6563Z" fill="#FE6347"/>
<path d="M570.648 156.418L697.713 381.268C686.765 374.946 676.014 368.005 665.132 361.716L551.1 166.194C557.844 162.218 565.501 159.449 570.648 156.418Z" fill="#FE9249"/>
<path d="M857.357 296.542C857.357 307.393 857.39 318.277 857.357 329.129L704.229 78.2087C707.096 76.5468 711.559 71.7891 717.261 68.4326L857.357 296.542Z" fill="#FE6748"/>
<path d="M772.648 35.8461C774.7 34.8033 778.577 33.1739 779.327 34.2819C801.09 65.8261 829.631 110.21 847.094 143.774C852.144 153.485 855.435 161.501 857.325 172.711C857.325 188.972 857.325 205.331 857.325 221.592L850.189 222.407C783.074 111.187 749.483 55.5938 749.483 55.5938L753.067 48.8809C759.192 45.2963 765.415 40.0498 772.615 35.8461H772.648Z" fill="#FE5846"/>
<path d="M753.099 48.8809L857.357 221.592C857.357 232.443 857.357 243.327 857.357 254.179L736.809 58.657C741.794 55.7241 747.789 52.0092 753.099 48.8809Z" fill="#FE5E47"/>
<path d="M792.196 26.0693L857.357 133.606V172.711L772.647 35.8454C778.805 32.2609 786.69 29.2954 792.196 26.0693Z" fill="#FE5247"/>
<path d="M531.552 179.229L626.035 338.905C613.003 331.312 599.938 323.654 586.939 316.094L569.573 298.562L511.515 195.587L515.261 189.005C520.67 185.779 526.078 182.487 531.552 179.229Z" fill="#FE9E49"/>
<path d="M515.261 189.005L586.938 316.094C573.906 308.501 560.841 300.876 547.842 293.283C525.687 270.929 505.552 235.148 492.292 206.113L495.713 198.781C502.49 194.74 510.179 192.003 515.261 189.005Z" fill="#FEA348"/>
<path d="M547.842 293.283C534.842 285.69 521.745 278.064 508.745 270.472C495.452 253.201 482.192 234.756 474.047 214.292L479.423 208.556C484.831 205.33 490.272 202.006 495.713 198.78L547.842 293.283Z" fill="#FEA849"/>
<path d="M508.745 270.472C487.079 257.828 463.132 245.184 440.326 234.594C436.97 230.064 475.09 211.131 479.423 208.557C483.235 230.944 507.116 247.205 508.745 270.472Z" fill="#FEAD49"/>
<path d="M391.456 729.948C396.31 732.914 422.668 743.179 417.487 749.435C413.904 753.769 379.14 768.01 371.907 772.312C364.935 775.147 358.549 775.049 352.75 771.953L4.46392 772.312L0.48909 765.794C0.48909 754.943 0.456509 744.059 0.48909 733.207C0.423929 730.665 1.10812 726.722 2.67199 726.657C108.982 723.659 219.039 723.301 326.164 723.952C348.71 721.574 370.474 723.561 391.423 729.916L391.456 729.948Z" fill="#FECB2E"/>
<path d="M371.907 772.311C356.692 781.305 341.77 792.548 326.294 801.639L303.195 807.929C203.433 806.919 103.834 805.941 4.39857 804.931L0.521484 798.381C0.521484 787.529 0.521484 776.645 0.521484 765.794L354.151 765.631L371.94 772.311H371.907Z" fill="#FECE28"/>
<path d="M306.746 681.068L304.563 687.618C204.574 688.693 104.551 689.736 4.52911 690.812L0.489125 684.327C0.554286 672.4 0.391383 660.408 0.489125 648.481C0.717189 645.907 1.59686 641.996 3.38879 641.931C65.8783 639.031 135.047 638.281 197.895 639.324C214.478 638.086 229.205 639.161 244.843 645.222C265.402 657.247 286.188 668.978 306.746 681.068Z" fill="#FEC438"/>
<path d="M355.617 710.397L353.401 716.947C237.121 718.022 120.841 719.065 4.52888 720.14L0.488897 713.655C0.521478 703.912 0.456317 694.071 0.488897 684.327L306.746 681.068C323.036 690.649 339.946 701.109 355.617 710.397Z" fill="#FEC734"/>
<path d="M391.455 729.949L0.48877 733.207C0.48877 726.69 0.48877 720.173 0.48877 713.655L355.617 710.396C367.183 717.24 379.694 722.747 391.455 729.949Z" fill="#FEC831"/>
<path d="M244.843 645.223L0.489125 648.481C0.554286 637.63 0.391383 626.746 0.489125 615.894L7.52652 611.234C66.2041 609.801 124.686 609.181 182.94 609.377C203.531 621.271 224.317 633.231 244.843 645.223Z" fill="#FEC03C"/>
<path d="M296.972 817.933C281.887 826.764 266.411 835.204 251.359 844.003L230.703 850.096C155.181 849.314 79.7246 848.402 4.33327 847.326L0.48877 840.744C0.48877 832.076 0.48877 823.343 0.48877 814.674C0.48877 812.133 1.23812 808.19 2.83457 808.19C89.792 807.082 187.338 806.462 274.035 811.155C286.09 809.135 293.746 811.416 297.004 817.933H296.972Z" fill="#FED222"/>
<path d="M251.359 844.003C235.004 853.551 218.876 863.783 202.488 873.331L178.085 879.457C120.092 878.512 62.1639 877.6 4.30083 876.655L0.521484 870.072C0.521484 860.329 0.521484 850.488 0.521484 840.744L251.392 844.003H251.359Z" fill="#FED51C"/>
<path d="M182.94 609.376C180.659 616.871 174.534 615.666 168.442 616.089C114 619.739 55.3547 612.994 0.489044 615.894C0.586786 603.967 0.2284 591.975 0.489044 580.048L6.93999 573.107L77.2814 574.248C92.4639 571.641 107.06 571.413 121.037 573.531C141.921 585.295 162.838 597.776 182.94 609.376Z" fill="#FEBD40"/>
<path d="M326.294 801.64C316.781 807.245 306.485 812.361 296.972 817.933L0.48877 814.674C0.48877 809.232 0.48877 803.823 0.48877 798.381L326.294 801.64Z" fill="#FED125"/>
<path d="M65.65 540.944C82.4616 543.29 106.506 565.352 121.037 573.531C84.1883 587.25 39.6181 576.822 0.488911 580.049C0.749555 567.437 -0.74915 553.099 0.488911 540.944C15.8669 529.995 47.9262 531.559 65.65 540.944Z" fill="#FEBA44"/>
<path d="M202.488 873.331C192.909 878.903 182.777 884.019 173.166 889.624L149.219 895.686C100.837 894.773 52.4873 893.861 4.20295 892.948L0.48877 886.366C0.48877 880.924 0.48877 875.514 0.48877 870.072L202.488 873.331Z" fill="#FED617"/>
<path d="M143.843 905.918C132.114 912.761 120.288 921.56 108.005 928.729C74.8052 934.888 40.4978 936.028 5.0502 932.118L0.488921 925.47C0.42376 917.877 0.488921 910.252 0.488921 902.659L2.83472 896.207C48.6104 897.25 94.3861 898.293 140.162 899.335L143.843 905.951V905.918Z" fill="#FEDA0D"/>
<path d="M173.166 889.625C163.489 895.262 153.357 900.379 143.843 905.918L0.48877 902.66C0.48877 897.218 0.48877 891.808 0.48877 886.366L173.166 889.625Z" fill="#FED813"/>
<path d="M108.005 928.729C90.9001 938.701 73.1112 948.119 55.876 958.058C38.9342 960.991 21.7642 962.164 4.33363 961.61L0.489125 954.799C0.391383 945.055 0.554286 935.214 0.489125 925.471L108.005 928.729Z" fill="#FEDC07"/>
<path d="M55.8759 958.057C37.4353 968.681 20.526 982.53 0.52159 990.644C0.391268 978.718 0.586752 966.726 0.48901 954.799C18.1802 956.656 40.0418 950.693 55.8759 958.057Z" fill="#FEDF05"/>
<path d="M65.6499 540.944C45.906 538.207 20.9168 542.932 0.48877 540.944C4.91972 497.212 46.1015 523.901 65.6499 540.944Z" fill="#FEB748"/>
<path d="M417.52 1319.77L413.285 1332.22L148.209 1598.88L140.585 1600.02C135.144 1596.79 129.736 1593.47 124.295 1590.24L121.265 1584.02C217.638 1488.41 313.36 1392.12 408.43 1295.2C421.462 1286.47 421.234 1310.49 417.487 1319.74L417.52 1319.77Z" fill="#D5DF03"/>
<path d="M417.52 1437.09C412.242 1435.13 412.242 1430.8 417.52 1424.05C410.743 1419.52 413.513 1414.31 417.52 1407.76C412.242 1405.8 412.242 1401.47 417.52 1394.72C410.971 1387.59 412.144 1379.77 417.52 1371.91C410.841 1366.08 412.894 1359.53 417.52 1352.36C410.711 1347.83 413.578 1342.65 417.52 1336.07C411.818 1332.87 411.818 1327.43 417.52 1319.77C417.39 1312.6 419.051 1303.28 415.891 1296.96L124.295 1590.25C120.614 1588.06 117.518 1585.52 114.521 1583.73C108.754 1580.6 107.256 1578.19 110.025 1576.46C208.092 1479.48 305.15 1381.98 401.23 1283.93C405.921 1281.48 411.33 1275.29 417.488 1274.15C423.352 1278.42 421.039 1400.56 420.843 1419.2C420.778 1424.7 422.928 1433.66 417.52 1437.09Z" fill="#DCDF03"/>
<path d="M101.488 1577.21C96.0801 1573.95 90.6065 1570.69 85.1982 1567.43L82.103 1561.28C145.863 1495.64 209.786 1429.82 273.905 1363.8L306.746 1339.33C326.327 1327.56 345.517 1314.85 365.391 1303.48L368.519 1309.64C281.691 1399.09 195.092 1488.77 108.689 1578.68L101.488 1577.21Z" fill="#E6E003"/>
<path d="M114.521 1583.73C110.383 1581.25 105.594 1579.69 101.489 1577.21L365.391 1303.48C377.25 1296.7 389.142 1290.28 401.23 1283.93C402.435 1291.32 398.851 1293.87 394.844 1298.72C317.53 1391.99 205.844 1478.96 122.601 1570.66C118.919 1574.7 114.456 1577.31 114.521 1583.76V1583.73Z" fill="#E1DF03"/>
<path d="M306.746 1339.33L85.1986 1567.43C80.2789 1564.47 76.2389 1560.17 72.1663 1557.66L67.5073 1553.23C113.511 1493.49 172.775 1434.58 231.974 1384.52L251.359 1371.91C267.975 1357.12 288.143 1350.5 306.746 1339.33Z" fill="#ECE003"/>
<path d="M417.52 1371.91L412.73 1386.02C335.515 1464.72 258.005 1543.03 180.171 1620.91L173.166 1619.57C168.246 1616.67 164.108 1612.14 160.134 1609.8L157.462 1606.31C240.607 1520.7 325.024 1435.62 410.645 1351.09L417.52 1352.36C417.585 1358.88 417.52 1365.39 417.52 1371.91Z" fill="#C7DE03"/>
<path d="M417.52 1394.72L412.47 1406.29C338.382 1479.91 264.294 1553.45 190.206 1626.91L186.198 1626.12C182.061 1623.68 177.304 1622.05 173.166 1619.61L417.52 1371.95C417.553 1379.54 417.52 1387.16 417.52 1394.76V1394.72Z" fill="#C1DE03"/>
<path d="M417.52 1336.07L413.219 1348.52C327.858 1433.89 242.563 1519.21 157.267 1604.52L150.36 1603.28C148.372 1602.11 143.876 1601.98 140.585 1600.02L417.52 1319.77C417.618 1325.22 417.487 1330.62 417.52 1336.07Z" fill="#D0DF03"/>
<path d="M417.52 1352.36L160.134 1609.8C155.963 1607.35 152.835 1604.75 150.359 1603.28L417.52 1336.07C417.552 1341.51 417.487 1346.92 417.52 1352.36Z" fill="#CCDF03"/>
<path d="M251.359 1371.91C198.09 1419.36 128.628 1491.28 80.2459 1544.56C76.5643 1548.6 72.1008 1551.21 72.1659 1557.66C67.0508 1554.5 60.9582 1551.01 55.8757 1547.88C54.2141 1545.89 52.0312 1542.6 53.2366 1541.2C94.2881 1493.36 143.941 1444.12 192.714 1404.5C211.936 1393.42 230.084 1378.79 251.359 1371.91Z" fill="#F3E003"/>
<path d="M417.52 1567.43L413.968 1577.6L300.979 1692.08L296.972 1691.23C289.837 1687.03 283.549 1681.81 277.423 1678.2L274.947 1671.45L410.157 1536.22L417.52 1538.07C417.52 1547.85 417.52 1557.63 417.52 1567.4V1567.43Z" fill="#8CDC11"/>
<path d="M417.52 1407.76L413.252 1420.11C342.585 1491.08 271.331 1561.28 199.524 1630.65L192.714 1629.38C190.629 1628.14 188.283 1627.36 186.198 1626.12L417.52 1394.76C417.52 1399.09 417.52 1403.46 417.52 1407.79V1407.76Z" fill="#BCDE03"/>
<path d="M417.52 1424.05L413.35 1436.37C346.397 1503.34 279.509 1570.24 212.588 1637.17L205.714 1635.9C202.456 1633.98 197.764 1632.41 192.682 1629.38L417.487 1407.79C417.487 1413.23 417.487 1418.64 417.487 1424.08L417.52 1424.05Z" fill="#B7DE06"/>
<path d="M417.52 1437.09C417.52 1438.16 417.52 1439.27 417.52 1440.35L413.35 1452.66C349.687 1516.34 286.025 1580.01 222.395 1643.66L215.521 1642.38C211.383 1639.94 208.255 1637.33 205.747 1635.87L417.52 1424.05C417.52 1428.39 417.52 1432.75 417.52 1437.09Z" fill="#B2DE06"/>
<path d="M137.327 1437.09C139.152 1438.85 141.498 1441.94 140.488 1443.21C118.691 1469.51 72.6549 1518.85 46.9488 1539.9L39.5856 1538.14C37.7285 1536.9 32.2224 1537.1 28.606 1534.59C18.7667 1527.71 16.258 1510.83 24.6638 1502.03C60.144 1476.91 99.9248 1458.82 137.327 1437.12V1437.09Z" fill="#FEE101"/>
<path d="M417.52 1489.23C417.52 1494.67 417.52 1500.08 417.52 1505.52C415.142 1517.58 410.613 1523.34 399.894 1528.92L261.883 1669.27L257.843 1668.45C254.161 1666.27 251.066 1663.7 248.069 1661.94L240.217 1654.28C294.985 1596.44 353.923 1534.94 414.295 1485.18L417.488 1489.23H417.52Z" fill="#9FDD0C"/>
<path d="M417.52 1456.64L413.317 1468.96C351.968 1529.27 290.619 1589.53 229.27 1649.68L225.295 1648.9C221.613 1646.75 218.55 1644.18 215.521 1642.38L417.52 1440.34C417.52 1445.79 417.52 1451.2 417.52 1456.64Z" fill="#AEDD09"/>
<path d="M417.52 1472.93L413.936 1483.56C353.63 1537.58 295.506 1596.01 239.142 1654.15L231.811 1652.16C229.987 1651.09 227.641 1650.27 225.295 1648.9L417.52 1456.64C417.52 1462.08 417.52 1467.49 417.52 1472.93Z" fill="#A9DD09"/>
<path d="M192.714 1404.5L55.8757 1547.88C50.2719 1544.43 45.9712 1542.34 39.5854 1538.11L137.327 1437.09C155.8 1426.36 174.143 1415.22 192.714 1404.5Z" fill="#FAE004"/>
<path d="M417.52 1525.07C417.52 1529.41 417.52 1533.77 417.52 1538.11L277.423 1678.23C274.165 1676.31 269.474 1674.71 264.391 1671.71C263.218 1670.12 262.371 1668.81 262.632 1668.55C310.427 1618.17 360.439 1567.34 411.329 1520.64L417.52 1525.07Z" fill="#93DD0C"/>
<path d="M417.52 1603.28L412.275 1618.07C384.092 1647.6 355.584 1676.8 326.783 1705.7L319.778 1704.27C314.305 1701.04 308.897 1697.68 303.488 1694.49L301.436 1691.62L411.623 1579.95C413.187 1578.09 415.207 1578.58 417.52 1580.44C417.52 1588.03 417.52 1595.65 417.52 1603.25V1603.28Z" fill="#7EDC11"/>
<path d="M417.52 1489.23C411.069 1489.16 408.495 1493.62 404.423 1497.31C356.431 1540.88 293.779 1602.17 251.229 1650.53C247.743 1654.51 243.019 1655.94 248.069 1661.94C242.562 1658.71 237.187 1655.32 231.778 1652.16L417.487 1472.93C417.487 1478.37 417.487 1483.78 417.487 1489.23H417.52Z" fill="#A5DD0C"/>
<path d="M417.52 1626.09L412.209 1640.62C409.668 1644.99 345.387 1709.97 340.793 1712.06C338.382 1713.16 335.352 1711.89 332.811 1710.82C329.52 1708.86 324.828 1707.3 319.778 1704.3L417.52 1603.28C417.52 1610.87 417.52 1618.5 417.52 1626.09Z" fill="#74DC13"/>
<path d="M417.52 1525.07L402.729 1531.46L264.392 1671.71C262.306 1670.47 259.961 1669.69 257.875 1668.45L417.52 1505.52C417.52 1512.04 417.52 1518.55 417.52 1525.07Z" fill="#98DD0C"/>
<path d="M417.52 1671.71C411.362 1685.66 401.132 1697.81 386.796 1708.18C379.238 1718.64 371.027 1726.03 362.133 1730.37C356.659 1727.18 351.284 1723.79 345.843 1720.59L345.321 1709.81C364.218 1687.26 384.744 1666.24 406.899 1646.75L417.52 1645.64C417.52 1654.31 417.52 1663.04 417.52 1671.71Z" fill="#63DB15"/>
<path d="M417.52 1645.64C393.313 1669.07 363.99 1692.41 345.843 1720.59C340.141 1717.24 335.71 1712.51 332.811 1710.82L417.52 1626.09C417.52 1632.61 417.52 1639.13 417.52 1645.64Z" fill="#6DDB15"/>
<path d="M417.52 1580.47L303.488 1694.52C301.696 1693.45 299.285 1692.63 296.972 1691.27L417.52 1567.43C417.52 1571.77 417.52 1576.14 417.52 1580.47Z" fill="#85DC11"/>
<path d="M417.52 1688.01C407.192 1706.32 393.052 1722.61 375.165 1736.89C371.614 1734.8 366.727 1733.04 362.133 1730.37C374.741 1707.79 398.786 1689.57 417.52 1671.71C417.52 1677.15 417.52 1682.56 417.52 1688.01Z" fill="#58DB17"/>
<path d="M417.52 1704.3C414.164 1718.38 395.756 1742.75 381.681 1740.15C379.824 1739.07 377.511 1738.25 375.165 1736.89C370.115 1730.86 374.807 1729.46 378.326 1725.48C389.761 1712.48 404.39 1699.41 417.52 1688.01C417.52 1693.45 417.552 1698.86 417.52 1704.3Z" fill="#4FDB18"/>
<path d="M417.52 1723.85C414.978 1735.06 405.335 1746.5 394.713 1749.92C389.859 1746.99 385.558 1742.39 381.681 1740.15L417.52 1704.3C417.455 1710.82 417.585 1717.33 417.52 1723.85Z" fill="#44DB18"/>
<path d="M417.52 1743.4C415.304 1755.33 410.938 1758.59 404.488 1753.18C402.435 1751.97 398.004 1751.91 394.713 1749.92C396.896 1738.94 408.951 1730.63 417.52 1723.85C417.455 1730.37 417.683 1736.89 417.52 1743.4Z" fill="#3ADA1A"/>
<path d="M899.712 1551.14L910.594 1560.27L1104.71 1880.37L1101.74 1886.79C1097.61 1889.23 1092.85 1890.86 1088.71 1893.3C1086.53 1894.84 1083.4 1895.88 1082.49 1894.41C1014.36 1783.49 945.129 1669.43 877.622 1557.89L870.422 1567.43C875.7 1577.31 875.7 1584.9 870.422 1590.25C874.364 1597.28 874.364 1602.73 870.422 1606.54C875.57 1616.02 875.57 1623.65 870.422 1629.35C867.653 1627.85 867.653 1628.05 867.066 1624.69C865.437 1615.63 865.568 1544.53 867.62 1536.9C868.337 1534.16 869.901 1531.85 873.615 1533.15C880.49 1535.63 893.033 1546.55 899.745 1551.11L899.712 1551.14Z" fill="#00A191"/>
<path d="M974.647 1593.5L994.424 1613.71C1043.39 1695.05 1092.3 1776.19 1141.1 1857.23L1137.55 1863.98C1132.14 1867.27 1126.67 1870.49 1121.26 1873.75L1117.22 1875.48C1057.47 1779.74 998.985 1682.56 941.741 1583.99L945.292 1577.24C954.936 1582.82 964.938 1587.83 974.615 1593.54L974.647 1593.5Z" fill="#0096A0"/>
<path d="M870.39 1629.35C873.289 1621.27 875.896 1621.59 879.805 1628.96L1051.5 1912.3L1049.58 1916.12C1044.17 1919.28 1038.77 1922.7 1033.29 1925.89L1026.58 1927.39C976.7 1845.6 926.754 1763.64 876.71 1681.59L870.39 1658.71C870.39 1648.97 870.39 1639.13 870.39 1629.38V1629.35Z" fill="#00AF78"/>
<path d="M1088.68 1893.3C1085.68 1895.06 1082.65 1897.64 1078.91 1899.82L1072.19 1901.39C1006.8 1797.43 941.578 1693.15 876.482 1588.58L870.39 1567.47C870.52 1557.72 870.259 1547.88 870.39 1538.14L875.179 1541.43L1088.65 1893.34L1088.68 1893.3Z" fill="#00A48B"/>
<path d="M1033.29 1925.89C1028.24 1928.86 1023.65 1930.45 1020.26 1932.41C1018.27 1934.17 1016.22 1934.69 1014.07 1933.55L876.222 1708.93L870.39 1688.01C870.39 1678.26 870.39 1668.42 870.39 1658.68L1033.29 1925.89Z" fill="#00B372"/>
<path d="M870.389 1567.43L1078.9 1899.82C1074.77 1902.27 1070.04 1903.9 1065.87 1906.34C1063.89 1908.1 1061.83 1908.65 1059.68 1907.48L874.755 1605.5L870.357 1590.25C870.389 1582.65 870.259 1575.03 870.357 1567.43H870.389Z" fill="#00A787"/>
<path d="M916.002 1560.92L923.594 1566.49C989.667 1667.15 1053.26 1769.57 1114.45 1873.82L1111.49 1880.27C1108.13 1882.26 1105.07 1884.8 1101.71 1886.79L899.712 1551.14C903.296 1553.58 913.689 1552.64 916.002 1560.92Z" fill="#009D96"/>
<path d="M945.325 1577.21L1121.26 1873.75C1118.23 1875.58 1115.17 1878.09 1111.49 1880.27L916.002 1560.92C927.699 1562.58 935.811 1571.7 945.325 1577.21Z" fill="#009A9B"/>
<path d="M1000.71 1609.8L1013.32 1621.95L1151.82 1850.81L1150.61 1854.2C1148.69 1862.25 1141.65 1861.5 1137.58 1863.98L974.68 1593.5C983.639 1598.78 992.469 1604.97 1000.74 1609.8H1000.71Z" fill="#0092A6"/>
<path d="M987.679 1951.96C982.271 1955.09 976.928 1958.58 971.389 1961.74L960.898 1955.19C933.498 1907.38 905.023 1860.98 875.44 1815.91L870.389 1798.8C870.357 1785.8 870.389 1772.7 870.389 1759.7C872.638 1758.1 874.853 1757.81 877.036 1759.21L990.644 1945.54L987.679 1951.96Z" fill="#00C05B"/>
<path d="M1075.65 1652.16L1094.61 1671.91C1123.93 1725.94 1154.65 1779.05 1186.84 1831.26L1183.16 1837.91C1178.01 1840.77 1174.59 1842.11 1170.13 1844.42C1166.64 1842.05 1163.26 1839.54 1160.16 1836.73C1157.07 1833.93 1154.1 1831.19 1151.98 1827.9C1113.99 1769.05 1075.68 1708.73 1041.67 1648.8C1038.37 1642.87 1039.87 1638.9 1046.36 1635.87C1055.94 1641.44 1066 1646.56 1075.68 1652.16H1075.65Z" fill="#0089B4"/>
<path d="M1046.32 1635.87C1044.7 1646.82 1052.06 1654.31 1056.82 1662.85C1091.42 1724.89 1132.43 1784.27 1170.13 1844.42C1166.48 1846.31 1161.92 1852.93 1157.1 1854.2C1107.8 1779.25 1060.24 1702.41 1014.43 1623.71L1017 1619.57C1026.55 1625.11 1036.62 1630.23 1046.32 1635.87Z" fill="#008DAE"/>
<path d="M1056.1 1912.86C1054.01 1914.06 1051.67 1914.88 1049.58 1916.11L877.101 1631.4C875.765 1628.08 871.562 1629.97 870.389 1629.35C870.389 1621.76 870.357 1614.13 870.389 1606.54C872.54 1605.43 874.234 1604.62 874.364 1604.81C936.495 1703.55 999.734 1805.91 1059.06 1906.44L1056.1 1912.86Z" fill="#00AC7F"/>
<path d="M1010.49 1938.93C1005.47 1941.83 1000.91 1943.46 997.454 1945.44C995.206 1947.04 993.023 1947.37 990.872 1945.93L875.896 1757.35L870.357 1736.85C870.357 1728.19 870.357 1719.45 870.357 1710.78C872.605 1709.19 874.82 1708.86 877.003 1710.23L1013.42 1932.51L1010.45 1938.89L1010.49 1938.93Z" fill="#00B967"/>
<path d="M1065.87 1906.34C1062.94 1908.07 1059.81 1910.67 1056.1 1912.86L870.39 1606.54C870.39 1601.1 870.39 1595.69 870.39 1590.25L1065.87 1906.34Z" fill="#00A982"/>
<path d="M1134.29 1688.01C1161.72 1729.55 1189.13 1770.61 1216.46 1811.22L1215.74 1818.35C1210.33 1821.45 1204.93 1824.97 1199.45 1828.13L1188.41 1830.61C1155.18 1780.55 1123.83 1726.95 1095.33 1674.03L1101.71 1668.49C1112.5 1674.74 1124.03 1682.08 1134.29 1688.04V1688.01Z" fill="#0081C0"/>
<path d="M1020.26 1932.41C1016.87 1934.36 1013.87 1936.97 1010.49 1938.93L870.39 1710.82C870.39 1703.22 870.39 1695.6 870.39 1688.01L1020.26 1932.41Z" fill="#00B66D"/>
<path d="M1101.71 1668.45C1100.83 1675.2 1104.02 1679.14 1106.83 1684.49C1128.79 1726.23 1160.62 1776.77 1186.62 1816.59C1189.58 1821.16 1192.74 1829.43 1199.45 1828.13C1194.01 1831.29 1188.77 1834.78 1183.16 1837.91L1075.65 1652.16C1084.77 1657.44 1093.37 1663.6 1101.71 1668.45Z" fill="#0085BA"/>
<path d="M997.454 1945.44C995.141 1946.78 992.045 1949.45 987.68 1951.96L870.39 1759.7C870.39 1752.1 870.39 1744.48 870.39 1736.89L997.454 1945.44Z" fill="#00BC62"/>
<path d="M870.39 1798.8L899.68 1836.99C918.479 1881.05 950.636 1918.46 971.389 1961.74C968.522 1963.37 965.395 1966.07 961.615 1968.25L954.513 1969.23C928.122 1927.98 901.928 1886.56 875.928 1844.98L870.39 1824.87C870.39 1816.2 870.39 1807.47 870.39 1798.8Z" fill="#00C453"/>
<path d="M1163.61 1704.3C1186.58 1726.43 1205.94 1761.23 1220.57 1790.17C1228.19 1799.09 1229.85 1806.3 1225.52 1811.84C1222.46 1813.66 1219.52 1816.17 1215.74 1818.35C1207.37 1814.05 1202.94 1806.07 1198.12 1798.51C1179.97 1770.09 1162.05 1740.7 1144.75 1711.76C1140.38 1704.46 1134.1 1696.93 1134.29 1688.01C1143.58 1693.42 1154.07 1698.73 1163.61 1704.3Z" fill="#017DC7"/>
<path d="M1017 1619.57L1157.1 1854.2C1155.31 1854.66 1152.63 1853.87 1150.58 1854.2L1000.71 1609.8C1006.15 1612.96 1011.5 1616.38 1017 1619.57Z" fill="#008FAA"/>
<path d="M961.615 1968.25C957.021 1970.89 952.329 1972.65 948.583 1974.77C947.149 1975.65 945.716 1976.3 944.347 1976.21C938.027 1975.62 881.402 1881.08 876.254 1869.68L870.357 1847.68C870.324 1840.09 870.357 1832.46 870.357 1824.87L961.582 1968.25H961.615Z" fill="#00C84D"/>
<path d="M948.583 1974.77C943.077 1977.9 938.353 1981.19 932.293 1984.55C915.123 1953.92 896.193 1924.2 875.603 1895.36L870.39 1877.01C870.324 1867.27 870.422 1857.43 870.39 1847.68L948.583 1974.77Z" fill="#00CB46"/>
<path d="M1192.94 1720.59C1210.82 1745.29 1227.11 1772.44 1241.81 1802.06C1236.79 1805.06 1230.8 1808.71 1225.52 1811.84L1163.61 1704.3C1173.26 1709.9 1183.23 1714.92 1192.94 1720.59Z" fill="#017ACC"/>
<path d="M870.389 1903.08C876.612 1898.03 882.542 1901.26 888.244 1912.73L903.556 1944.6C915.742 1953.56 928.383 1972.46 925.776 1987.81C920.433 1990.67 916.654 1994.06 909.486 1997.58L900.136 1993.93C888.146 1975.26 878.209 1955.84 870.389 1935.67C870.227 1924.82 870.487 1913.93 870.389 1903.08Z" fill="#07D137"/>
<path d="M932.292 1984.55C930.11 1985.75 927.894 1986.67 925.776 1987.81C918.902 1976.96 913.037 1965.39 906.261 1954.44C904.729 1951.96 900.07 1951.11 898.441 1948.47C890.329 1935.31 886.647 1912.07 870.389 1903.05C870.324 1894.38 870.455 1885.65 870.389 1876.98C890.426 1905.26 916.1 1940.07 931.185 1971.12C933.661 1976.24 937.603 1978.23 932.292 1984.52V1984.55Z" fill="#00CE40"/>
<path d="M1219 1736.89C1231.61 1752.69 1242.92 1770.91 1252.88 1791.5L1248.32 1798.8C1245.98 1800.2 1243.57 1801.02 1241.81 1802.06C1234.8 1803.59 1234.74 1798.28 1232.03 1794.08C1219.62 1774.66 1206.2 1753.31 1194.86 1733.34C1193.07 1730.17 1186.03 1722.71 1192.94 1720.59C1201.8 1725.78 1210.86 1732.13 1219 1736.89Z" fill="#0177D0"/>
<path d="M909.486 1997.58C904.664 1999.96 904.143 2001.92 896.454 2004.1C882.183 2003.32 873.517 1992.43 870.389 1971.51C869.835 1959.65 870.585 1947.56 870.389 1935.67C886.549 1953.43 898.018 1976.47 909.486 1997.58Z" fill="#02D52C"/>
<path d="M1241.81 1749.92L1255.85 1763.87C1266.86 1776.02 1268.69 1785.51 1261.36 1792.28C1257.28 1794.79 1252.46 1796.33 1248.32 1798.8C1243.5 1780.68 1230.47 1765.5 1220.86 1749.69C1219 1746.6 1212.22 1738.91 1219 1736.89C1226.3 1741.16 1234.22 1745.49 1241.81 1749.92Z" fill="#0173D5"/>
<path d="M1241.81 1749.92C1255.98 1758.2 1272.5 1765.63 1287.42 1772.8C1287.97 1776.77 1288.59 1777 1285.4 1779.48C1281.13 1782.8 1267.55 1788.5 1261.36 1792.28C1261.19 1775.76 1245.23 1765.79 1241.81 1749.92Z" fill="#0470DC"/>
<path d="M896.454 2004.1C894.043 2004.78 894.141 2008.69 886.745 2006.12C868.044 1999.6 871.106 1986.93 870.39 1971.51C880.653 1980.31 882.673 2001.85 896.454 2004.1Z" fill="#14D922"/>
<path d="M417.52 1743.4C417.357 1749.89 417.65 1756.47 417.487 1762.96C411.688 1762.89 407.062 1754.68 404.488 1753.18L417.52 1743.4Z" fill="#34DB23"/>
<path d="M1310.23 1762.96V1274.15L1691.13 1494.41C1711.72 1502.65 1715.33 1525.92 1695.69 1537.52L1310.19 1762.96H1310.23Z" fill="#0069E3"/>
<path d="M1854.32 1257.86C1851.81 1267.67 1851.06 1276.95 1847.81 1287.19L1841.75 1291.65C1812 1293.41 1785.8 1294.09 1763.1 1293.7C1756.45 1287.64 1736.84 1285.03 1753.45 1272.65C1780.01 1252.81 1806.75 1277.9 1811.9 1274.12C1812.16 1266.85 1816.07 1260.99 1818.48 1254.6C1824.71 1247.04 1855.2 1245.21 1854.32 1257.86Z" fill="#0264C7"/>
<path d="M1717.48 1254.6C1713.02 1265.09 1708.85 1275.68 1707.71 1287.19C1683.34 1286.47 1658.74 1288.16 1634.37 1287.19C1626.36 1286.86 1623.75 1289.5 1629.52 1280.67C1641.86 1273.14 1654.7 1264.41 1665.35 1254.6C1678.29 1247.17 1708.65 1242.28 1717.48 1254.6Z" fill="#0164C7"/>
<path d="M1290.68 993.902L1308.14 987.385H1947.63L1965.1 993.902C1974.97 1004.36 1979.82 999.475 1968.35 1013.45L1959.43 1017.82C1739.83 1019.32 1519.95 1018.96 1299.74 1016.78L1284.16 1010.2C1283.67 1009.74 1279.34 1011.21 1278.23 1009.77C1271.55 1001.14 1282.27 993.25 1290.68 993.902Z" fill="#8F5995"/>
<path d="M1333.03 971.092C1349.32 972.982 1365.58 972.134 1381.9 971.092C1417.19 978.684 1421.91 977.837 1456.84 977.609C1481.89 970.798 1507.96 969.69 1535.03 974.35C1536.11 974.35 1537.22 974.35 1538.29 974.35C1554.03 966.399 1584.46 966.041 1596.94 977.609C1634.89 977.576 1673.63 974.318 1710.97 974.35C1742.28 968.257 1779.58 964.509 1808.71 977.609C1817.57 977.609 1825.49 974.318 1831.52 974.35C1861 963.629 1892.77 966.627 1922.74 974.35C1940.33 974.22 1953.53 981.617 1965.1 993.903H1290.68C1301.69 981.389 1317.79 975.719 1333.03 971.092Z" fill="#945993"/>
<path d="M1968.35 1013.45C1961.61 1021.7 1960.83 1021.44 1952.06 1026.49L1934.5 1029.75C1778.21 1029.75 1621.21 1030.27 1463.52 1031.38L1434.85 1026.49C1390.47 1031.61 1346.75 1031.61 1303.68 1026.49C1294.29 1021.02 1291.36 1017.2 1284.13 1010.2L1968.32 1013.45H1968.35Z" fill="#895A98"/>
<path d="M1952.06 1026.49C1944.47 1030.89 1942.09 1030.5 1935.77 1033.01C1900.03 1039.43 1864.03 1039.39 1828.26 1033.01C1821.38 1033.01 1814.7 1036.27 1811.97 1036.27L1806.36 1040.57C1773.23 1040.86 1740.35 1039.43 1707.71 1036.27C1671.41 1030.53 1633.75 1033.2 1596.94 1033.01C1583.32 1045.36 1555.33 1042.91 1538.29 1036.27C1531.77 1036.27 1525.26 1036.27 1518.74 1036.27C1507.99 1046.73 1474.14 1046.4 1463.36 1036.27C1459.35 1036.2 1445.96 1026.91 1435.53 1026.36C1424.42 1025.77 1412.2 1030.33 1401.45 1033.01C1373.95 1037.73 1347.43 1040.86 1320 1033.01C1314.53 1030.69 1309.51 1029.88 1303.71 1026.49H1952.06Z" fill="#855A9A"/>
<path d="M1772.87 1329.55L1814.64 1330.88C1818.97 1331.18 1819.3 1334.93 1818.48 1339.32C1798.87 1360.99 1796.17 1358.68 1772.87 1371.91C1750.23 1374.65 1727.19 1376.25 1703.73 1376.73L1694.68 1371.91C1682.65 1357.8 1682.43 1362.53 1675.13 1342.58C1674.05 1324.95 1713.15 1324.56 1724 1336.07C1734.26 1336.26 1769.38 1346.62 1772.87 1329.55Z" fill="#0166D4"/>
<path d="M1681.65 651.739C1719.01 652.456 1758.96 653.14 1795.68 651.739C1811.64 662.786 1816.56 665.426 1828.26 681.068C1830.05 695.569 1779.74 692.831 1774.76 688.563L1772.87 681.068C1770.43 679.406 1768.77 673.247 1762.28 670.509C1748.37 664.644 1720.97 671.324 1714.23 684.326C1704.84 695.829 1665.22 696.905 1671.87 674.55C1675.16 662.851 1674.12 662.428 1681.65 651.739Z" fill="#FE4D58"/>
<path d="M1753.32 625.67C1757.43 626.55 1789.42 647.405 1795.68 651.739C1797.5 661.613 1790.69 657.996 1784.44 658.257C1755.15 659.43 1722.27 659.234 1692.92 658.257C1686.63 658.061 1679.85 661.581 1681.68 651.739C1691.16 638.216 1705.27 630.004 1714.26 619.153C1725.47 619.25 1737.13 619.12 1749.28 618.696L1753.35 625.67H1753.32Z" fill="#FE4C53"/>
<path d="M1557.84 778.828C1575.24 776.71 1592.57 777.427 1609.97 778.828C1630.13 785.281 1632.15 786.291 1645.81 801.639C1646.85 802.878 1647.76 804.181 1648.15 805.615C1651.44 817.607 1598.5 808.352 1592.99 807.081C1584.46 809.851 1519.49 817.965 1525.68 802.682C1526.3 801.118 1527.34 799.717 1528.52 798.381C1540.02 786.812 1542.07 784.824 1557.84 778.828Z" fill="#D95370"/>
<path d="M1567.61 1195.94C1594.46 1198.13 1588.59 1198.81 1616.48 1195.94C1625.15 1184.57 1664.31 1184.01 1652.32 1202.46C1646.88 1210.21 1643.26 1213.08 1636.03 1218.75C1603.94 1224.46 1567.16 1224.72 1535.03 1218.75C1523.82 1209.86 1522.81 1207.45 1515.48 1195.94C1527.34 1185.29 1554.42 1186.75 1567.61 1195.94Z" fill="#3161BA"/>
<path d="M1460.1 1072.11C1466.52 1064.91 1518.84 1068.27 1525.62 1071.52L1531.77 1078.63C1533.24 1084.95 1533.96 1091.76 1535.03 1098.18C1533.57 1099.58 1532.03 1100.85 1530.31 1101.67C1526.04 1103.72 1446.41 1102.74 1435.53 1101.73L1427.48 1094.89C1424.58 1088.27 1417.51 1083.48 1420.97 1072.08C1434.42 1069.93 1447.36 1077.75 1460.06 1072.08L1460.1 1072.11Z" fill="#6E5CA5"/>
<path d="M1629.52 1280.67C1635.22 1286.4 1629.06 1283.93 1629.42 1283.76C1644.34 1276.99 1692.82 1278.39 1707.71 1287.19C1707.16 1292.6 1706.76 1305.24 1707.71 1310C1707.64 1323.36 1672.65 1325.15 1668.61 1313.26C1666.59 1312.93 1662.29 1307.59 1657.05 1306.8C1641.96 1304.55 1627.17 1314.27 1611.53 1300.29C1598.4 1288.52 1619.45 1286.79 1629.48 1280.67H1629.52Z" fill="#0164CA"/>
<path d="M1743.55 1094.92L1736.02 1101.6C1725.43 1102.38 1651.12 1103.46 1647.04 1101.67C1645.35 1100.92 1643.92 1099.65 1642.55 1098.18C1661.54 1053.83 1718.2 1053.24 1743.55 1094.92Z" fill="#6E5CA5"/>
<path d="M1772.87 1371.91C1748.47 1385.76 1760.46 1385.83 1756.74 1406.42C1755.99 1410.59 1753.49 1413.39 1753.32 1414.27C1751.3 1424.44 1735.04 1426.4 1730.52 1417.53C1718.88 1399.28 1708.39 1388.04 1694.68 1371.91C1719.6 1366.14 1747.75 1367.48 1772.87 1371.91Z" fill="#0268DA"/>
<path d="M1645.81 801.64C1654.44 811.35 1653.23 807.994 1658.84 821.192C1661.15 834.52 1624.53 836.996 1623 824.45C1618.34 823.342 1613.45 815.065 1607.62 812.165C1589.77 803.301 1571.26 811.676 1557.84 824.45C1547.84 832.728 1511.67 837.648 1512.23 821.192C1518.71 808.581 1518.55 808.418 1528.52 798.381C1530.8 805.876 1536.92 804.67 1543.01 805.094C1569.47 806.886 1600.91 805.257 1627.95 804.963C1633.46 804.898 1642.45 807.049 1645.84 801.64H1645.81Z" fill="#D45373"/>
<path d="M1665.35 703.879C1674.71 698.86 1701.68 697.036 1707.71 707.138C1707.12 712.221 1707.06 721.671 1707.71 726.69L1701.32 733.435C1678 734.543 1655.16 733.37 1632.77 729.948C1627.04 726.201 1614.79 725.419 1610.07 715.284C1624.53 694.494 1643.62 701.956 1665.35 703.879Z" fill="#F45161"/>
<path d="M1841.29 707.137C1844.22 714.762 1845.46 719.487 1847.81 726.689C1841.19 739.919 1819.59 737.997 1806.85 734.054C1786.23 738.811 1767.3 737.443 1750.06 729.948C1749.8 729.491 1747.59 729.589 1746.87 728.351C1747.03 726.689 1771.24 707.495 1772.87 707.137C1773.36 700.424 1778.28 697.784 1787.63 699.316L1836.57 701.141L1841.29 707.137Z" fill="#F35062"/>
<path d="M1492.68 902.659C1498.93 893.828 1530.67 891.775 1535.03 902.659C1534.02 910.773 1533.5 914.228 1531.77 922.212C1497.89 920.745 1463.81 920.647 1429.54 921.918L1424.26 918.953C1440.09 869.388 1466.74 899.042 1492.68 902.659Z" fill="#B35785"/>
<path d="M1668.61 1137.29C1667.18 1144.06 1667.28 1151.26 1665.35 1160.1C1656.75 1158.37 1659.69 1154.17 1661.31 1157.2C1662.81 1160 1620.95 1165.02 1619.74 1153.58C1616.13 1153.19 1611.01 1147.29 1605.11 1147.29C1592.41 1147.29 1565.72 1176.49 1570.87 1134.03L1578.49 1127.83C1587.42 1126.4 1663.01 1128.81 1665.84 1132.2C1667.05 1133.67 1667.9 1135.43 1668.64 1137.29H1668.61Z" fill="#555EAF"/>
<path d="M1847.81 1287.19C1844.71 1296.9 1842.79 1303.87 1838.03 1313.26C1828.97 1319.12 1817.02 1320.1 1802.13 1316.22C1787.56 1317.2 1777.79 1314.04 1772.87 1306.74C1772.19 1303.61 1765.9 1296.25 1763.1 1293.7C1761.27 1283.83 1768.08 1287.45 1774.34 1287.19C1798.74 1286.21 1823.4 1287.9 1847.81 1287.19Z" fill="#0164CB"/>
<path d="M1535.03 1098.18C1535.55 1101.21 1534.51 1104.93 1535.03 1107.96C1530.08 1118.74 1499.32 1116.89 1492.68 1107.96C1478.64 1109.68 1468.31 1121.94 1453.39 1119.62C1438.46 1117.31 1432.96 1107.27 1427.52 1094.92C1462.83 1096.84 1500.56 1090.82 1535.03 1098.18Z" fill="#675EA8"/>
<path d="M1763.1 954.799C1769.38 946.782 1818.35 945.837 1818.97 951.442L1815.23 961.316C1812.26 966.367 1809.56 971.679 1808.71 977.609C1776.32 977.512 1742.41 974.383 1710.97 974.351L1763.1 954.799Z" fill="#9C5990"/>
<path d="M1636.03 1218.75C1603.97 1243.84 1567.55 1244.56 1535.03 1218.75C1538.42 1213.34 1547.38 1215.49 1552.92 1215.43C1574.62 1215.2 1596.48 1215.17 1618.18 1215.43C1623.68 1215.49 1632.68 1213.34 1636.06 1218.75H1636.03Z" fill="#2963BD"/>
<path d="M1668.61 870.072C1669.23 874.471 1673.7 880.337 1671.87 886.365L1666.17 891.71C1639.62 891.905 1613.06 892.329 1586.54 893.013L1577.42 886.365C1574 880.369 1570.32 880.141 1570.9 870.072C1571.03 868.834 1571.26 867.66 1571.88 866.781C1574.88 862.609 1663.43 862.023 1666.5 865.738C1667.51 866.944 1668.12 868.475 1668.65 870.072H1668.61Z" fill="#BC5680"/>
<path d="M1811.97 1036.27C1815.88 1040.63 1816.27 1048.49 1818.48 1052.56L1814.64 1059.37C1797.01 1060.18 1779.84 1058.98 1763.1 1055.82C1745.8 1044.25 1728.24 1039.52 1707.71 1036.27C1711.1 1030.86 1720.06 1033.01 1725.6 1032.94C1754.3 1032.65 1784.57 1036.27 1811.97 1036.27Z" fill="#805B9E"/>
<path d="M1671.87 886.366C1673.89 887.018 1683.18 900.769 1688.16 902.659L1683.89 909.112C1675.78 910.806 1646.07 909.894 1639.29 905.918C1628.34 888.158 1624.37 901.812 1610.07 904.615C1592.5 908.036 1584.95 899.661 1577.39 886.366C1600.55 890.895 1652.65 880.272 1671.87 886.366Z" fill="#B75783"/>
<path d="M1838.03 1313.25C1831.48 1326.13 1827.38 1329.52 1818.48 1339.32C1810.18 1333.07 1775.9 1338.35 1772.84 1336.07C1772.32 1335.67 1773.16 1331.37 1772.84 1329.55C1773.59 1325.87 1773.62 1310.32 1772.84 1306.74L1838 1313.25H1838.03Z" fill="#0166CF"/>
<path d="M1577.39 1120.99C1598.11 1091.04 1610.65 1112.78 1631.37 1114.64C1636.94 1115.13 1637.69 1108.41 1639.29 1107.96C1647.37 1097.2 1678.65 1099.58 1684.9 1111.22C1680.31 1108.28 1673.17 1120.67 1671.87 1124.25L1664.51 1130.15C1653.36 1130.87 1582.96 1129.69 1580.03 1126.04C1578.85 1124.58 1578.07 1122.82 1577.35 1120.99H1577.39Z" fill="#615FAB"/>
<path d="M1828.26 681.067C1838.36 694.591 1835.82 692.864 1841.29 707.137C1821.94 710.135 1790.37 703.031 1772.87 707.137V681.067C1781.47 686.9 1817.28 686.086 1828.26 681.067Z" fill="#FB4F5E"/>
<path d="M1743.55 1094.92C1747.1 1100.76 1747.56 1100.98 1750.06 1107.96C1743.25 1118.06 1717.94 1116.23 1707.71 1111.22C1700.12 1111.38 1692.49 1111.25 1684.9 1111.22C1674.54 1111.15 1652.19 1104.24 1639.29 1107.96C1637.89 1103.3 1641.38 1100.95 1642.55 1098.18C1674.8 1090.85 1710.41 1096.85 1743.55 1094.92Z" fill="#685FA8"/>
<path d="M1903.19 954.798C1900.46 974.676 1909.97 965.682 1922.74 974.35C1893.09 974.546 1861.36 974.481 1831.52 974.35C1839.82 972.33 1855.82 955.971 1860.84 954.798C1868.46 944.892 1897.69 944.892 1903.19 954.798Z" fill="#9C5990"/>
<path d="M1753.32 625.67C1741.63 623.128 1720.9 631.861 1714.23 619.152C1725.14 605.955 1731.62 587.25 1741.92 573.596C1760.85 587.217 1757.98 605.401 1753.32 625.67Z" fill="#FE4D4C"/>
<path d="M1424.26 918.953C1454.3 913.935 1489.65 914.489 1520.53 915.694C1526.82 915.955 1533.6 912.338 1531.77 922.212C1531.35 924.167 1532.23 926.839 1531.77 928.729L1526.82 935.084C1494.08 933.65 1461.4 932.672 1428.79 932.118L1424.23 925.47C1424.62 923.417 1423.7 920.615 1424.23 918.953H1424.26Z" fill="#AD5687"/>
<path d="M1522 1052.56C1525.19 1061.65 1529.36 1068.14 1531.77 1078.63L1460.1 1072.11C1465.21 1064.81 1470.23 1062.43 1469.87 1052.56C1475.31 1041.84 1515.58 1042.39 1522 1052.56Z" fill="#765CA2"/>
<path d="M1688.16 902.66C1692.49 902.66 1696.86 902.594 1701.19 902.66C1712.79 894.317 1742.21 890.439 1746.81 905.918C1745.57 908.884 1745.44 912.273 1743.55 915.694L1734.13 922.016C1729.86 923.222 1659.75 923.352 1654.77 922.212C1649.78 921.071 1646.49 919.181 1642.52 915.694C1640.37 912.599 1640.46 907.906 1639.26 905.918C1652.68 899.89 1672.68 902.692 1688.13 902.66H1688.16Z" fill="#B15685"/>
<path d="M1733.77 791.863C1742.08 812.165 1710.64 813.794 1701.19 801.639C1696.44 792.157 1685.39 777.525 1678.39 769.052C1683.99 757.354 1709.92 763.024 1720.74 765.794C1723.74 773.321 1729.77 781.533 1733.77 791.863Z" fill="#DD536F"/>
<path d="M1720.74 765.793C1709.7 773.028 1691.81 767.357 1678.39 769.052C1670.86 759.96 1664.93 753.573 1655.58 746.241C1655.61 743.699 1655.81 740.082 1657.67 739.43C1666.46 736.302 1706.31 731.349 1710.97 739.724C1712.17 744.221 1718.49 760.156 1720.74 765.793Z" fill="#E85168"/>
<path d="M1854.32 746.242C1851.23 756.865 1819.49 755.887 1815.23 746.242C1808.32 729.753 1798.74 741.256 1787.27 742.722C1772.51 744.58 1757.75 744.123 1750.06 729.948C1782.06 727.928 1816.66 734.152 1847.81 726.689C1849.92 733.142 1852.46 739.659 1854.32 746.242Z" fill="#EE5165"/>
<path d="M1531.77 928.728C1529.98 936.126 1526.85 940.036 1525.26 945.022C1523.95 947.336 1522.07 949.03 1519.36 949.258C1511.31 949.943 1480.72 949.91 1472.51 949.258C1469.81 949.03 1467.95 947.303 1466.65 945.022C1454.04 927.49 1424.94 942.415 1421.03 938.505C1418.43 932.769 1423.8 928.044 1424.29 925.47L1531.81 928.728H1531.77Z" fill="#A9588B"/>
<path d="M1828.26 1068.85C1832.3 1078.24 1835.36 1084.66 1838.03 1094.92C1832.46 1106.33 1806.43 1101.05 1795.68 1098.18C1795.06 1096.49 1783.46 1073.32 1782.64 1072.11C1780.89 1056.7 1820.31 1059.34 1828.26 1068.85Z" fill="#705DA5"/>
<path d="M1616.48 857.038C1626.45 846.48 1662.91 845.469 1668.61 860.296C1669.07 863.392 1668.16 866.944 1668.61 870.073H1570.87C1572.4 843.188 1593.22 859.351 1608.57 859.775C1612.35 859.873 1615.51 857.038 1616.48 857.038Z" fill="#C2567D"/>
<path d="M1906.45 1062.34C1907.07 1072.83 1906.12 1098.57 1903.19 1107.96C1898.92 1114.18 1891.95 1112.94 1886.9 1107.96C1880.52 1095.44 1876.61 1074.98 1867.35 1062.34C1869.99 1051.97 1902.9 1052.4 1906.45 1062.34Z" fill="#725DA4"/>
<path d="M1743.55 915.693C1739.64 922.7 1739.05 923.123 1733.77 928.728C1710.32 938.765 1675.91 938.439 1652.32 928.728C1648.15 924.427 1645.81 920.418 1642.55 915.693H1743.55Z" fill="#AD5788"/>
<path d="M1841.29 886.366C1839.76 898.456 1837.77 904.517 1834.77 915.694C1831.48 925.829 1799.65 925.829 1795.68 915.694C1797.31 911.588 1801.7 891.352 1802.19 886.366C1804.83 876.003 1837.74 876.427 1841.29 886.366Z" fill="#B55683"/>
<path d="M1707.71 726.69C1707.84 727.765 1710.35 737.411 1710.97 739.725L1655.58 746.242C1649.1 741.158 1639.68 734.446 1632.77 729.949C1656.95 723.399 1682.88 728.026 1707.71 726.69Z" fill="#EF5064"/>
<path d="M1756.58 857.037C1757.66 869.811 1755.47 875.546 1753.32 886.365C1750.06 896.565 1718.04 896.434 1714.23 886.365C1716.9 878.512 1717.81 865.509 1717.48 857.037C1720.12 846.674 1753.03 847.098 1756.58 857.037Z" fill="#BF557E"/>
<path d="M1834.77 915.693C1832.53 924.068 1831.91 929.804 1828.26 938.504C1819.82 953.168 1790.59 951.018 1779.39 941.763C1781.9 932.932 1792.74 922.993 1795.68 915.693H1834.77Z" fill="#AA5789"/>
<path d="M1499.19 860.296C1505.91 842.308 1549.99 847.359 1538.29 870.072C1538.52 873.266 1538.36 876.655 1538.29 879.848C1536.86 898.814 1505.32 897.185 1495.94 886.366C1497.37 878.349 1497.34 868.997 1499.19 860.296Z" fill="#BF567F"/>
<path d="M1838.03 844.002C1840.38 858.308 1810.63 857.722 1805.45 847.261C1804.18 846.088 1803.11 843.937 1802.19 840.744C1801.28 828.133 1796.23 817.346 1795.64 806.527C1795.38 801.737 1795.16 800.629 1800.63 801.607C1812.75 803.79 1833.34 832.63 1838.06 844.035L1838.03 844.002Z" fill="#CE5578"/>
<path d="M1724 1336.07C1708.98 1335.77 1686.08 1332.16 1675.13 1342.58C1671.64 1333.07 1665.62 1325.8 1668.61 1313.25C1678.52 1314.79 1699.63 1314.79 1707.71 1310C1709.21 1317.43 1719.41 1329.45 1724 1336.07Z" fill="#0266D0"/>
<path d="M1596.94 954.798C1597.95 961.772 1596.22 970.342 1596.94 977.609C1577.42 977.609 1554.71 974.318 1538.29 974.35C1545.56 967.963 1552.59 963.369 1557.84 954.798C1563.61 944.957 1590.81 944.598 1596.94 954.798Z" fill="#9C5990"/>
<path d="M1857.58 762.535C1859.27 769.15 1872.37 809.623 1870.61 811.383C1845.62 808.157 1835.39 792.45 1825 772.311L1828.78 765.598C1839.2 766.576 1848.1 767.195 1857.58 762.535Z" fill="#DD5570"/>
<path d="M1733.77 928.729C1709.96 953.951 1676.33 953.495 1652.32 928.729H1733.77Z" fill="#A9598B"/>
<path d="M1844.55 1134.03C1844.71 1144.16 1843.24 1145.5 1841.29 1153.58C1837.58 1163.35 1809.33 1162.12 1802.19 1156.84C1802.58 1147.81 1803.01 1136.31 1802.19 1127.51C1807.5 1115.35 1842.85 1118.16 1844.55 1134.03Z" fill="#5660B0"/>
<path d="M1499.19 1143.8C1486.36 1115.06 1533.08 1110.27 1538.29 1134.03C1539.37 1140.48 1540.15 1147.22 1541.55 1153.58L1540.08 1157.91C1526.01 1156.67 1513.46 1158.47 1502.45 1163.35C1500.92 1155.99 1498.51 1154.1 1499.19 1143.8Z" fill="#555FB0"/>
<path d="M1518.74 1036.27C1519.2 1041.77 1520.18 1047.38 1522 1052.56H1469.87C1469.64 1046.6 1465.8 1041.41 1463.35 1036.27C1479.94 1036.46 1501.77 1036.23 1518.74 1036.27Z" fill="#7F5B9E"/>
<path d="M1714.23 684.326C1712.34 687.943 1708.23 702.705 1707.71 707.137C1696.44 706.355 1684.38 708.245 1673.24 707.267C1669.04 706.909 1665.94 703.943 1665.35 703.878C1667.57 693.939 1669.1 684.424 1671.87 674.55C1673.37 692.082 1701.39 681.752 1714.23 684.326Z" fill="#FC4F5D"/>
<path d="M1903.19 905.918C1910.46 925.014 1908.76 923.189 1906.45 941.763C1901.34 953.234 1862.76 952.256 1873.87 935.246C1878.79 926.122 1882.89 915.531 1886.9 905.918C1888.63 896.728 1901.17 896.663 1903.19 905.918Z" fill="#AB5889"/>
<path d="M1671.87 1124.25C1671.41 1125.49 1669.1 1135 1668.61 1137.29C1637.47 1129.82 1602.87 1136.05 1570.87 1134.03C1571.82 1126.24 1573.87 1126.11 1577.39 1120.99C1607.46 1128.29 1640.92 1122.36 1671.87 1124.25Z" fill="#5A5EAD"/>
<path d="M1753.32 1153.58V1156.84C1752.41 1170.98 1750.39 1174.04 1746.81 1186.17L1712.6 1184.21L1710.97 1176.39C1712.76 1170 1716.83 1159.48 1717.48 1153.58C1719.7 1143.28 1750.23 1143.74 1753.32 1153.58Z" fill="#4861B4"/>
<path d="M1854.32 746.241C1856.11 752.596 1856.31 757.581 1857.58 762.535C1857.03 778.437 1836.11 770.812 1825 772.311C1819.13 760.938 1819 755.235 1815.23 746.241H1854.32Z" fill="#E75269"/>
<path d="M1596.94 1033.01C1598.66 1043.73 1596.35 1050.08 1593.68 1059.08C1580.25 1060.05 1568.3 1058.98 1557.84 1055.82C1553.34 1047.74 1547.71 1038.84 1538.29 1036.27C1554.91 1036.27 1577.26 1032.91 1596.94 1033.01Z" fill="#805C9E"/>
<path d="M1619.74 1153.58C1627.72 1154.43 1663.4 1152.11 1665.39 1153.58C1665.91 1153.97 1665.06 1158.27 1665.39 1160.1C1663.99 1166.65 1664.77 1170.59 1662.13 1179.65C1652.88 1183.72 1630.95 1186.85 1626.29 1176.39C1626.78 1170.07 1619.97 1160.68 1619.77 1153.58H1619.74Z" fill="#4960B3"/>
<path d="M1717.48 1130.77C1715.56 1120.37 1750.39 1120.54 1752.51 1123.44C1757.2 1129.86 1755.67 1145.5 1753.32 1153.58H1717.48C1718.07 1148.3 1718.43 1135.49 1717.48 1130.77Z" fill="#5661B0"/>
<path d="M1851.06 1046.04C1850.51 1036.56 1898.53 1036.1 1903.78 1037.8C1905.47 1042.2 1906.39 1048.19 1906.45 1055.82C1906.81 1057.74 1906.32 1060.18 1906.45 1062.34H1867.35C1866.67 1061.39 1852.14 1046.89 1851.06 1046.04Z" fill="#7C5CA0"/>
<path d="M1535.03 1107.96C1536.6 1117.08 1536.95 1125.91 1538.29 1134.03C1535.39 1124.41 1510.83 1125.85 1504.54 1127.97C1497.34 1130.38 1499.58 1138.17 1499.19 1143.8L1496.62 1141.59L1492.68 1107.96C1505.81 1106.33 1521.51 1109.1 1535.03 1107.96Z" fill="#605FAC"/>
<path d="M1746.81 824.45C1744.59 834.748 1714.06 834.292 1710.97 824.45C1709.96 821.42 1702.85 804.931 1701.19 801.639C1712.3 800.14 1733.22 807.766 1733.77 791.863C1738.07 802.975 1743.03 812.784 1746.81 824.45Z" fill="#D45474"/>
<path d="M1750.06 1107.96C1755.34 1122.56 1761.37 1143.12 1753.32 1156.84C1753.39 1155.76 1753.32 1154.65 1753.32 1153.58C1753.52 1144.91 1753.19 1136.14 1753.32 1127.48L1717.45 1130.77C1716.67 1126.89 1708.95 1116.62 1707.68 1111.22C1708.1 1111.22 1711.36 1108.12 1715.56 1107.83C1726.93 1107.01 1738.66 1108.61 1750.03 1107.96H1750.06Z" fill="#5F5EAB"/>
<path d="M1935.77 1033.01C1920.85 1038.94 1902.57 1037.93 1906.45 1055.82C1906.19 1054.29 1902.02 1042.69 1901.34 1042.55L1851.06 1046.04C1844.84 1041.12 1833.63 1040.05 1828.26 1033.01C1864.06 1033.01 1899.97 1033.01 1935.77 1033.01Z" fill="#815C9D"/>
<path d="M1818.48 1052.56C1821.55 1058.2 1824.71 1060.61 1828.26 1068.85C1813.86 1070.61 1795.09 1064.81 1782.64 1072.11C1781.05 1069.77 1766.68 1058.2 1763.1 1055.82C1778.93 1048.45 1800.79 1054.42 1818.48 1052.56Z" fill="#785CA1"/>
<path d="M1544.81 1163.35C1547.74 1171.5 1548.98 1175.77 1554.58 1182.91C1551.03 1193.82 1515.61 1192.39 1508.97 1182.91C1504.83 1173.42 1504.83 1174.89 1502.45 1163.35C1507.44 1155.18 1537.77 1155.83 1544.81 1163.35Z" fill="#4460B5"/>
<path d="M1841.29 1153.58C1837.84 1167.95 1836.37 1170.69 1828.26 1182.91C1818.71 1182.91 1808.94 1182.91 1798.93 1182.91C1799.98 1173.82 1801.8 1166.45 1802.19 1156.84C1814.05 1150.71 1828.39 1154.49 1841.29 1153.58Z" fill="#4860B3"/>
<path d="M1841.29 1111.22C1842.56 1118.81 1844.42 1126.24 1844.55 1134.03C1831.71 1124.84 1817.08 1127.71 1802.19 1127.51C1801.8 1123.34 1799.94 1111.61 1798.93 1107.96C1804.08 1097.27 1838.32 1097.37 1841.29 1111.22Z" fill="#5F5EAB"/>
<path d="M1841.29 857.038C1855.27 881.25 1808.35 879.914 1805.65 876.492C1802.78 872.908 1803.69 852.215 1805.45 847.262C1815.68 845.86 1830.31 850.944 1838.03 844.003C1840.77 850.618 1840.15 850.846 1841.29 857.038Z" fill="#C6577D"/>
<path d="M1557.84 1055.82C1560.77 1050.99 1592.24 1051.45 1593.71 1052.56C1594.23 1052.95 1593.38 1057.25 1593.71 1059.08C1590.58 1069.54 1583.77 1085.18 1569.67 1082.12C1566.37 1081.4 1560.45 1060.44 1557.87 1055.82H1557.84Z" fill="#785EA3"/>
<path d="M1805.45 847.262C1805.81 851.889 1804.64 869.258 1805.45 870.105C1806.53 871.213 1831.58 870.464 1836.53 870.105C1845.82 869.486 1839.92 862.023 1841.32 857.038C1844.03 871.865 1843.24 871.343 1841.32 886.366H1802.23C1803.5 873.722 1803.17 853.616 1802.23 840.744C1805.39 841.624 1805.29 844.492 1805.48 847.262H1805.45Z" fill="#BE5982"/>
<path d="M1662.1 1179.65C1658.71 1191.22 1659.88 1191.67 1652.32 1202.46C1652.03 1200.63 1652.88 1196.37 1652.32 1195.94C1650.89 1194.87 1621.63 1195.39 1616.45 1195.94C1617.85 1190.4 1625.87 1180.92 1626.23 1176.39C1637.53 1177.92 1653.23 1172.58 1662.06 1179.65H1662.1Z" fill="#3E61B7"/>
<path d="M1544.81 840.744C1542.14 847.815 1545.03 863.261 1538.29 870.072C1537.61 861.013 1540.64 860.263 1529.43 857.917C1519.82 855.897 1507.93 855.636 1499.19 860.296C1501.18 850.846 1502.84 846.218 1505.71 837.485C1514.57 832.793 1539.46 830.74 1544.81 840.744Z" fill="#C8567C"/>
<path d="M1665.35 840.744C1666.79 847.033 1667.67 853.876 1668.61 860.296C1652.84 854.397 1633.56 857.298 1616.48 857.037C1619.48 851.79 1621.99 846.837 1623 840.744C1626.19 830.25 1661.18 830.804 1665.35 840.744Z" fill="#C8567B"/>
<path d="M1753.32 886.365C1751.01 898.097 1750.59 896.793 1746.81 905.917C1732.18 900.866 1716.44 902.854 1701.19 902.659C1705.3 900.052 1712.95 890.113 1714.23 886.365H1753.32Z" fill="#B75783"/>
<path d="M1557.84 824.45C1556.18 826.014 1545.17 839.766 1544.81 840.744C1532.46 839.114 1515.61 844.654 1505.71 837.485C1508.38 829.306 1508.19 829.045 1512.23 821.191C1524.67 828.491 1543.44 822.69 1557.84 824.45Z" fill="#CE5578"/>
<path d="M1525.26 945.022C1524.15 948.477 1523.27 951.344 1522 954.799C1513.27 964.77 1477.59 965.096 1469.87 954.799C1469.71 953.821 1466.91 945.446 1466.61 945.022C1482.94 939.58 1508.71 939.548 1525.26 945.022Z" fill="#A3588C"/>
<path d="M1535.03 902.66C1521.64 901.389 1505.58 904.452 1492.68 902.66C1489.81 896.077 1495.28 890.081 1495.94 886.366C1509.36 883.922 1531.32 892.851 1538.29 879.849C1538.06 889.788 1536.04 894.773 1535.03 902.66Z" fill="#B75883"/>
<path d="M1815.23 961.316C1817.05 951.475 1810.24 954.994 1803.95 954.798C1790.37 954.342 1776.65 955.124 1763.1 954.798C1767.23 951.833 1775.31 942.709 1779.39 941.764C1793.2 938.505 1814.38 946.456 1828.26 938.505C1824.09 948.477 1820.14 952.908 1815.23 961.316Z" fill="#A4598D"/>
<path d="M1828.26 1182.91C1824.61 1188.41 1800.63 1215.27 1797.31 1215.43C1791.86 1215.69 1794.37 1208.68 1794.6 1206.4C1795.32 1198.91 1797.99 1190.89 1798.93 1182.91C1802.84 1172.64 1823.99 1173.03 1828.26 1182.91Z" fill="#4063B7"/>
<path d="M1831.52 1228.53C1840.87 1214.84 1847.41 1201.97 1867.32 1199.2C1869.47 1210.96 1863.09 1221.65 1860.84 1231.79C1858.13 1241.63 1832.92 1238.37 1831.52 1228.53Z" fill="#2A63BE"/>
<path d="M1737.03 1212.24C1734 1220.02 1730.35 1227.52 1727.26 1235.05L1692.01 1235.31L1688.16 1228.53C1690.7 1224.75 1695.98 1216.11 1697.94 1212.24C1703.41 1202.56 1732.5 1201.78 1737.03 1212.24Z" fill="#2A63BE"/>
<path d="M1596.94 954.798H1557.84C1562.14 947.759 1564.35 928.533 1575.76 928.598C1584.52 928.663 1595.73 946.39 1596.94 954.798Z" fill="#A5598C"/>
<path d="M1665.35 840.744H1623C1623.81 835.856 1622.45 829.631 1623 824.45C1630.4 826.177 1652.75 825.754 1658.84 821.191C1662.49 829.729 1663.2 831.326 1665.35 840.744Z" fill="#CE5679"/>
<path d="M1554.58 1182.91C1557.28 1186.36 1565.98 1189.39 1567.61 1195.94C1550.74 1194.57 1532.52 1196.92 1515.48 1195.94C1511.64 1189.91 1511.57 1188.9 1508.97 1182.91H1554.58Z" fill="#3E62B8"/>
<path d="M1710.97 1176.39C1722.21 1183.66 1749.09 1173.13 1746.81 1186.17C1745.76 1189.72 1744.66 1192.59 1743.55 1195.94C1738.33 1205.72 1708.78 1206.3 1704.45 1195.94C1706.86 1189.85 1709.21 1182.74 1710.97 1176.39Z" fill="#3F62B7"/>
<path d="M1743.55 1195.94C1741.69 1201.58 1739.15 1206.79 1737.03 1212.24H1697.94C1699.89 1208.39 1702.56 1200.67 1704.45 1195.94H1743.55Z" fill="#3362BA"/>
<path d="M1678.39 1241.56C1690.02 1232.93 1731.88 1227.42 1720.74 1248.08C1719.7 1250.59 1718.3 1252.64 1717.48 1254.6H1665.35C1668.19 1251.99 1676.2 1244.11 1678.39 1241.56Z" fill="#1465C3"/>
<path d="M1756.58 857.037H1717.48C1717.26 851.171 1715.43 846.251 1714.23 840.743L1717.45 833.835C1728.5 834.91 1739.38 835.041 1750.06 834.226C1752.25 842.21 1755.7 846.642 1756.58 857.037Z" fill="#C8557A"/>
<path d="M1522 954.798C1520.86 957.926 1519.75 961.413 1518.74 964.574C1511.31 975.751 1480.17 974.448 1469.87 967.833C1469.45 963.662 1470.49 958.806 1469.87 954.798H1522Z" fill="#9D5990"/>
<path d="M1746.81 824.45C1747.88 827.774 1748.96 830.153 1750.06 834.226C1752.57 847.033 1725.24 838.365 1714.23 840.744C1713.15 835.823 1712.27 828.426 1710.97 824.45H1746.81Z" fill="#CE5578"/>
<path d="M1401.45 1033.01C1362.84 1042.62 1361.08 1050.25 1320 1033.01H1401.45Z" fill="#855B9B"/>
<path d="M1518.74 964.574C1517.7 967.866 1517.21 971.222 1515.48 974.318H1535.03C1510.73 974.383 1482.61 977.446 1456.84 977.609C1459.97 974.774 1466.19 968.615 1469.87 967.833C1484.21 964.835 1504.6 972.363 1518.74 964.574Z" fill="#9C5990"/>
<path d="M1688.16 1228.53C1695.04 1229.86 1724.81 1226.67 1727.29 1228.53C1727.81 1228.92 1726.96 1233.22 1727.29 1235.05C1725.04 1240.55 1722.24 1244.59 1720.77 1248.08C1720.48 1246.26 1721.33 1241.95 1720.77 1241.56C1718.17 1239.61 1685.65 1242.93 1678.39 1241.56C1681.19 1238.27 1685.68 1232.18 1688.16 1228.53Z" fill="#2064C0"/>
<path d="M1838.03 1094.92C1839.47 1100.43 1840.38 1105.61 1841.29 1111.22C1828.45 1104.93 1812.88 1109 1798.93 1107.96C1798.35 1105.77 1796.52 1100.43 1795.68 1098.18C1806.72 1090.95 1824.61 1096.62 1838.03 1094.92Z" fill="#6860A9"/>
<path d="M1873.87 935.246C1871.13 947.792 1895.89 939.58 1906.45 941.763C1905.7 947.792 1903.55 952.191 1903.19 954.798C1890.91 956.623 1871.88 952.224 1860.84 954.798C1864.13 948.216 1870.58 941.307 1873.87 935.246Z" fill="#A4598D"/>
<path d="M1860.84 1231.79C1859.83 1236.28 1858.52 1240.59 1857.58 1244.82L1854.03 1251.24C1852.4 1251.89 1821.06 1250.17 1821.74 1244.82C1826.11 1235.44 1826.47 1235.93 1831.52 1228.53L1860.84 1231.79Z" fill="#2063C0"/>
<path d="M1381.9 971.092C1366.85 978.717 1347.07 982.758 1333.03 971.092C1359.06 963.173 1356.62 965.65 1381.9 971.092Z" fill="#9B5C93"/>
<path d="M1609.97 778.828C1593.25 783.782 1574.65 783.814 1557.84 778.828C1583.15 769.183 1584.46 770.649 1609.97 778.828Z" fill="#DE5671"/>
<path d="M1857.58 1244.82C1856.54 1249.51 1855.49 1253.36 1854.32 1257.86C1845.49 1250.79 1829.79 1256.13 1818.48 1254.6C1819.66 1251.5 1819.72 1249.19 1821.74 1244.82H1857.58Z" fill="#1365C3"/>
<path d="M1541.55 1153.58C1542.36 1157.29 1543.57 1159.93 1544.81 1163.36H1502.45V1153.58H1541.55Z" fill="#4C62B3"/>
<path d="M1753.32 1414.27C1752.61 1418.18 1751.4 1432.98 1748.24 1433.99C1734.91 1438.23 1735.76 1425.78 1730.52 1417.53L1753.32 1414.27Z" fill="#056BE0"/>
<path d="M1903.19 905.918H1886.9C1888.47 902.203 1889.35 889.559 1891.82 889.592C1902.87 889.69 1901.27 900.867 1903.19 905.918Z" fill="#B65D89"/>
<path d="M1903.19 1107.96C1899.38 1120.14 1892.31 1118.55 1886.9 1107.96H1903.19Z" fill="#6E67AD"/>
</g>
<defs>
<clipPath id="clip0_313_1308">
<rect width="1975" height="2007" fill="white"/>
</clipPath>
</defs>
</svg>
